<?xml version="1.0" encoding="utf-8" standalone="no"?>
<!DOCTYPE svg PUBLIC "-//W3C//DTD SVG 1.1//EN"
  "http://www.w3.org/Graphics/SVG/1.1/DTD/svg11.dtd">
<svg xmlns:xlink="http://www.w3.org/1999/xlink" width="704.24pt" height="570.88pt" viewBox="0 0 704.24 570.88" xmlns="http://www.w3.org/2000/svg" version="1.1">
 <metadata>
  <rdf:RDF xmlns:dc="http://purl.org/dc/elements/1.1/" xmlns:cc="http://creativecommons.org/ns#" xmlns:rdf="http://www.w3.org/1999/02/22-rdf-syntax-ns#">
   <cc:Work>
    <dc:type rdf:resource="http://purl.org/dc/dcmitype/StillImage"/>
    <dc:date>2025-11-07T11:23:01.368539</dc:date>
    <dc:format>image/svg+xml</dc:format>
    <dc:creator>
     <cc:Agent>
      <dc:title>Matplotlib v3.10.1, https://matplotlib.org/</dc:title>
     </cc:Agent>
    </dc:creator>
   </cc:Work>
  </rdf:RDF>
 </metadata>
 <defs>
  <style type="text/css">*{stroke-linejoin: round; stroke-linecap: butt}</style>
 </defs>
 <g id="figure_1">
  <g id="patch_1">
   <path d="M 0 570.88 
L 704.24 570.88 
L 704.24 0 
L 0 0 
z
" style="fill: #ffffff"/>
  </g>
  <g id="axes_1">
   <g id="patch_2">
    <path d="M 27.44 508.32 
L 697.04 508.32 
L 697.04 64.8 
L 27.44 64.8 
z
" style="fill: #ffffff"/>
   </g>
   <g id="FillBetweenPolyCollection_1"/>
   <g id="matplotlib.axis_1">
    <g id="xtick_1">
     <g id="line2d_1">
      <path d="M 103.562365 508.32 
L 103.562365 64.8 
" clip-path="url(#pe717bdadf8)" style="fill: none; stroke: #002d4c; stroke-opacity: 0.3; stroke-width: 0.5; stroke-linecap: square"/>
     </g>
     <g id="line2d_2">
      <defs>
       <path id="m2291750020" d="M 0 0 
L 0 3.5 
" style="stroke: #002d4c; stroke-width: 0.8"/>
      </defs>
      <g>
       <use xlink:href="#m2291750020" x="103.562365" y="214.289816" style="fill: #002d4c; stroke: #002d4c; stroke-width: 0.8"/>
      </g>
     </g>
     <g id="text_1">
      <!-- 0 -->
      <g style="fill: #002d4c" transform="translate(98.472365 233.447316) scale(0.16 -0.16)">
       <defs>
        <path id="DejaVuSans-30" d="M 2034 4250 
Q 1547 4250 1301 3770 
Q 1056 3291 1056 2328 
Q 1056 1369 1301 889 
Q 1547 409 2034 409 
Q 2525 409 2770 889 
Q 3016 1369 3016 2328 
Q 3016 3291 2770 3770 
Q 2525 4250 2034 4250 
z
M 2034 4750 
Q 2819 4750 3233 4129 
Q 3647 3509 3647 2328 
Q 3647 1150 3233 529 
Q 2819 -91 2034 -91 
Q 1250 -91 836 529 
Q 422 1150 422 2328 
Q 422 3509 836 4129 
Q 1250 4750 2034 4750 
z
" transform="scale(0.015625)"/>
       </defs>
       <use xlink:href="#DejaVuSans-30"/>
      </g>
     </g>
    </g>
    <g id="xtick_2">
     <g id="line2d_3">
      <path d="M 212.71402 508.32 
L 212.71402 64.8 
" clip-path="url(#pe717bdadf8)" style="fill: none; stroke: #002d4c; stroke-opacity: 0.3; stroke-width: 0.5; stroke-linecap: square"/>
     </g>
     <g id="line2d_4">
      <g>
       <use xlink:href="#m2291750020" x="212.71402" y="214.289816" style="fill: #002d4c; stroke: #002d4c; stroke-width: 0.8"/>
      </g>
     </g>
     <g id="text_2">
      <!-- 5 -->
      <g style="fill: #002d4c" transform="translate(207.62402 233.447316) scale(0.16 -0.16)">
       <defs>
        <path id="DejaVuSans-35" d="M 691 4666 
L 3169 4666 
L 3169 4134 
L 1269 4134 
L 1269 2991 
Q 1406 3038 1543 3061 
Q 1681 3084 1819 3084 
Q 2600 3084 3056 2656 
Q 3513 2228 3513 1497 
Q 3513 744 3044 326 
Q 2575 -91 1722 -91 
Q 1428 -91 1123 -41 
Q 819 9 494 109 
L 494 744 
Q 775 591 1075 516 
Q 1375 441 1709 441 
Q 2250 441 2565 725 
Q 2881 1009 2881 1497 
Q 2881 1984 2565 2268 
Q 2250 2553 1709 2553 
Q 1456 2553 1204 2497 
Q 953 2441 691 2322 
L 691 4666 
z
" transform="scale(0.015625)"/>
       </defs>
       <use xlink:href="#DejaVuSans-35"/>
      </g>
     </g>
    </g>
    <g id="xtick_3">
     <g id="line2d_5">
      <path d="M 321.865676 508.32 
L 321.865676 64.8 
" clip-path="url(#pe717bdadf8)" style="fill: none; stroke: #002d4c; stroke-opacity: 0.3; stroke-width: 0.5; stroke-linecap: square"/>
     </g>
     <g id="line2d_6">
      <g>
       <use xlink:href="#m2291750020" x="321.865676" y="214.289816" style="fill: #002d4c; stroke: #002d4c; stroke-width: 0.8"/>
      </g>
     </g>
     <g id="text_3">
      <!-- 10 -->
      <g style="fill: #002d4c" transform="translate(311.685676 233.447316) scale(0.16 -0.16)">
       <defs>
        <path id="DejaVuSans-31" d="M 794 531 
L 1825 531 
L 1825 4091 
L 703 3866 
L 703 4441 
L 1819 4666 
L 2450 4666 
L 2450 531 
L 3481 531 
L 3481 0 
L 794 0 
L 794 531 
z
" transform="scale(0.015625)"/>
       </defs>
       <use xlink:href="#DejaVuSans-31"/>
       <use xlink:href="#DejaVuSans-30" transform="translate(63.623047 0)"/>
      </g>
     </g>
    </g>
    <g id="xtick_4">
     <g id="line2d_7">
      <path d="M 431.017331 508.32 
L 431.017331 64.8 
" clip-path="url(#pe717bdadf8)" style="fill: none; stroke: #002d4c; stroke-opacity: 0.3; stroke-width: 0.5; stroke-linecap: square"/>
     </g>
     <g id="line2d_8">
      <g>
       <use xlink:href="#m2291750020" x="431.017331" y="214.289816" style="fill: #002d4c; stroke: #002d4c; stroke-width: 0.8"/>
      </g>
     </g>
     <g id="text_4">
      <!-- 15 -->
      <g style="fill: #002d4c" transform="translate(420.837331 233.447316) scale(0.16 -0.16)">
       <use xlink:href="#DejaVuSans-31"/>
       <use xlink:href="#DejaVuSans-35" transform="translate(63.623047 0)"/>
      </g>
     </g>
    </g>
    <g id="xtick_5">
     <g id="line2d_9">
      <path d="M 540.168987 508.32 
L 540.168987 64.8 
" clip-path="url(#pe717bdadf8)" style="fill: none; stroke: #002d4c; stroke-opacity: 0.3; stroke-width: 0.5; stroke-linecap: square"/>
     </g>
     <g id="line2d_10">
      <g>
       <use xlink:href="#m2291750020" x="540.168987" y="214.289816" style="fill: #002d4c; stroke: #002d4c; stroke-width: 0.8"/>
      </g>
     </g>
     <g id="text_5">
      <!-- 20 -->
      <g style="fill: #002d4c" transform="translate(529.988987 233.447316) scale(0.16 -0.16)">
       <defs>
        <path id="DejaVuSans-32" d="M 1228 531 
L 3431 531 
L 3431 0 
L 469 0 
L 469 531 
Q 828 903 1448 1529 
Q 2069 2156 2228 2338 
Q 2531 2678 2651 2914 
Q 2772 3150 2772 3378 
Q 2772 3750 2511 3984 
Q 2250 4219 1831 4219 
Q 1534 4219 1204 4116 
Q 875 4013 500 3803 
L 500 4441 
Q 881 4594 1212 4672 
Q 1544 4750 1819 4750 
Q 2544 4750 2975 4387 
Q 3406 4025 3406 3419 
Q 3406 3131 3298 2873 
Q 3191 2616 2906 2266 
Q 2828 2175 2409 1742 
Q 1991 1309 1228 531 
z
" transform="scale(0.015625)"/>
       </defs>
       <use xlink:href="#DejaVuSans-32"/>
       <use xlink:href="#DejaVuSans-30" transform="translate(63.623047 0)"/>
      </g>
     </g>
    </g>
    <g id="xtick_6">
     <g id="line2d_11">
      <path d="M 649.320643 508.32 
L 649.320643 64.8 
" clip-path="url(#pe717bdadf8)" style="fill: none; stroke: #002d4c; stroke-opacity: 0.3; stroke-width: 0.5; stroke-linecap: square"/>
     </g>
     <g id="line2d_12">
      <g>
       <use xlink:href="#m2291750020" x="649.320643" y="214.289816" style="fill: #002d4c; stroke: #002d4c; stroke-width: 0.8"/>
      </g>
     </g>
     <g id="text_6">
      <!-- 25 -->
      <g style="fill: #002d4c" transform="translate(639.140643 233.447316) scale(0.16 -0.16)">
       <use xlink:href="#DejaVuSans-32"/>
       <use xlink:href="#DejaVuSans-35" transform="translate(63.623047 0)"/>
      </g>
     </g>
    </g>
   </g>
   <g id="matplotlib.axis_2">
    <g id="ytick_1">
     <g id="line2d_13">
      <path d="M 27.44 489.894335 
L 697.04 489.894335 
" clip-path="url(#pe717bdadf8)" style="fill: none; stroke: #002d4c; stroke-opacity: 0.3; stroke-width: 0.5; stroke-linecap: square"/>
     </g>
     <g id="line2d_14">
      <defs>
       <path id="mccd5d3f982" d="M 0 0 
L -3.5 0 
" style="stroke: #002d4c; stroke-width: 0.8"/>
      </defs>
      <g>
       <use xlink:href="#mccd5d3f982" x="103.562365" y="489.894335" style="fill: #002d4c; stroke: #002d4c; stroke-width: 0.8"/>
      </g>
     </g>
     <g id="text_7">
      <!-- −6 -->
      <g style="fill: #002d4c" transform="translate(72.974865 495.973085) scale(0.16 -0.16)">
       <defs>
        <path id="DejaVuSans-2212" d="M 678 2272 
L 4684 2272 
L 4684 1741 
L 678 1741 
L 678 2272 
z
" transform="scale(0.015625)"/>
        <path id="DejaVuSans-36" d="M 2113 2584 
Q 1688 2584 1439 2293 
Q 1191 2003 1191 1497 
Q 1191 994 1439 701 
Q 1688 409 2113 409 
Q 2538 409 2786 701 
Q 3034 994 3034 1497 
Q 3034 2003 2786 2293 
Q 2538 2584 2113 2584 
z
M 3366 4563 
L 3366 3988 
Q 3128 4100 2886 4159 
Q 2644 4219 2406 4219 
Q 1781 4219 1451 3797 
Q 1122 3375 1075 2522 
Q 1259 2794 1537 2939 
Q 1816 3084 2150 3084 
Q 2853 3084 3261 2657 
Q 3669 2231 3669 1497 
Q 3669 778 3244 343 
Q 2819 -91 2113 -91 
Q 1303 -91 875 529 
Q 447 1150 447 2328 
Q 447 3434 972 4092 
Q 1497 4750 2381 4750 
Q 2619 4750 2861 4703 
Q 3103 4656 3366 4563 
z
" transform="scale(0.015625)"/>
       </defs>
       <use xlink:href="#DejaVuSans-2212"/>
       <use xlink:href="#DejaVuSans-36" transform="translate(83.789062 0)"/>
      </g>
     </g>
    </g>
    <g id="ytick_2">
     <g id="line2d_15">
      <path d="M 27.44 398.026162 
L 697.04 398.026162 
" clip-path="url(#pe717bdadf8)" style="fill: none; stroke: #002d4c; stroke-opacity: 0.3; stroke-width: 0.5; stroke-linecap: square"/>
     </g>
     <g id="line2d_16">
      <g>
       <use xlink:href="#mccd5d3f982" x="103.562365" y="398.026162" style="fill: #002d4c; stroke: #002d4c; stroke-width: 0.8"/>
      </g>
     </g>
     <g id="text_8">
      <!-- −4 -->
      <g style="fill: #002d4c" transform="translate(72.974865 404.104912) scale(0.16 -0.16)">
       <defs>
        <path id="DejaVuSans-34" d="M 2419 4116 
L 825 1625 
L 2419 1625 
L 2419 4116 
z
M 2253 4666 
L 3047 4666 
L 3047 1625 
L 3713 1625 
L 3713 1100 
L 3047 1100 
L 3047 0 
L 2419 0 
L 2419 1100 
L 313 1100 
L 313 1709 
L 2253 4666 
z
" transform="scale(0.015625)"/>
       </defs>
       <use xlink:href="#DejaVuSans-2212"/>
       <use xlink:href="#DejaVuSans-34" transform="translate(83.789062 0)"/>
      </g>
     </g>
    </g>
    <g id="ytick_3">
     <g id="line2d_17">
      <path d="M 27.44 306.157989 
L 697.04 306.157989 
" clip-path="url(#pe717bdadf8)" style="fill: none; stroke: #002d4c; stroke-opacity: 0.3; stroke-width: 0.5; stroke-linecap: square"/>
     </g>
     <g id="line2d_18">
      <g>
       <use xlink:href="#mccd5d3f982" x="103.562365" y="306.157989" style="fill: #002d4c; stroke: #002d4c; stroke-width: 0.8"/>
      </g>
     </g>
     <g id="text_9">
      <!-- −2 -->
      <g style="fill: #002d4c" transform="translate(72.974865 312.236739) scale(0.16 -0.16)">
       <use xlink:href="#DejaVuSans-2212"/>
       <use xlink:href="#DejaVuSans-32" transform="translate(83.789062 0)"/>
      </g>
     </g>
    </g>
    <g id="ytick_4">
     <g id="line2d_19">
      <path d="M 27.44 214.289816 
L 697.04 214.289816 
" clip-path="url(#pe717bdadf8)" style="fill: none; stroke: #002d4c; stroke-opacity: 0.3; stroke-width: 0.5; stroke-linecap: square"/>
     </g>
     <g id="line2d_20">
      <g>
       <use xlink:href="#mccd5d3f982" x="103.562365" y="214.289816" style="fill: #002d4c; stroke: #002d4c; stroke-width: 0.8"/>
      </g>
     </g>
     <g id="text_10">
      <!-- 0 -->
      <g style="fill: #002d4c" transform="translate(86.382365 220.368566) scale(0.16 -0.16)">
       <use xlink:href="#DejaVuSans-30"/>
      </g>
     </g>
    </g>
    <g id="ytick_5">
     <g id="line2d_21">
      <path d="M 27.44 122.421643 
L 697.04 122.421643 
" clip-path="url(#pe717bdadf8)" style="fill: none; stroke: #002d4c; stroke-opacity: 0.3; stroke-width: 0.5; stroke-linecap: square"/>
     </g>
     <g id="line2d_22">
      <g>
       <use xlink:href="#mccd5d3f982" x="103.562365" y="122.421643" style="fill: #002d4c; stroke: #002d4c; stroke-width: 0.8"/>
      </g>
     </g>
     <g id="text_11">
      <!-- 2 -->
      <g style="fill: #002d4c" transform="translate(86.382365 128.500393) scale(0.16 -0.16)">
       <use xlink:href="#DejaVuSans-32"/>
      </g>
     </g>
    </g>
   </g>
   <g id="line2d_23">
    <path d="M 103.562365 233.053437 
L 103.998971 232.659803 
L 104.435578 232.680751 
L 104.872184 231.447885 
L 105.308791 232.506575 
L 105.745398 232.694778 
L 106.182004 232.492347 
L 106.618611 232.724186 
L 107.491824 232.948594 
L 107.928431 232.194009 
L 108.365037 233.994941 
L 108.801644 231.842582 
L 109.238251 233.833068 
L 109.674857 230.841111 
L 110.111464 233.130079 
L 110.548071 232.499375 
L 110.984677 233.137834 
L 111.421284 232.61387 
L 111.85789 232.945952 
L 112.294497 232.305869 
L 112.731104 232.972817 
L 113.604317 232.538713 
L 114.47753 232.906361 
L 115.350743 232.527175 
L 115.78735 233.029625 
L 116.223957 231.583145 
L 116.660563 233.551851 
L 117.09717 231.66033 
L 117.533777 234.068174 
L 117.970383 231.994507 
L 118.40699 233.893677 
L 118.843596 232.021659 
L 119.280203 233.321066 
L 119.71681 233.600346 
L 120.153416 234.868794 
L 120.590023 233.647369 
L 121.02663 234.367724 
L 121.463236 234.75388 
L 121.899843 233.063208 
L 122.336449 233.215037 
L 122.773056 233.895258 
L 123.209663 234.10834 
L 123.646269 231.991812 
L 124.519482 234.378866 
L 124.956089 233.79783 
L 125.392696 231.888164 
L 125.829302 235.165956 
L 126.265909 251.998796 
L 126.702516 243.960522 
L 127.139122 253.864557 
L 127.575729 261.097018 
L 128.012335 263.870348 
L 128.448942 264.076931 
L 128.885549 264.935678 
L 129.322155 262.057643 
L 129.758762 265.551013 
L 130.195369 260.025495 
L 130.631975 261.640759 
L 131.068582 257.849556 
L 131.505188 258.727566 
L 131.941795 258.48431 
L 132.378402 261.180242 
L 132.815008 258.995046 
L 133.251615 261.941675 
L 133.688222 259.083058 
L 134.124828 260.304808 
L 134.561435 260.208507 
L 134.998041 259.803547 
L 135.434648 260.807914 
L 135.871255 260.054559 
L 136.307861 260.9126 
L 136.744468 259.068952 
L 137.181075 261.493002 
L 137.617681 258.974305 
L 138.054288 259.313247 
L 138.490894 259.958511 
L 138.927501 261.756441 
L 139.364108 258.24839 
L 139.800714 261.625478 
L 140.237321 258.351701 
L 140.673928 262.040344 
L 141.110534 259.360865 
L 141.983747 262.117632 
L 142.420354 261.48736 
L 142.856961 261.458351 
L 143.293567 259.955819 
L 143.730174 261.235268 
L 144.16678 257.877413 
L 144.603387 257.708984 
L 145.039994 258.716689 
L 145.4766 259.016487 
L 145.913207 258.690736 
L 146.349814 261.538297 
L 146.78642 259.306062 
L 147.223027 262.658456 
L 147.659633 259.25674 
L 148.09624 261.174713 
L 148.532847 254.369621 
L 148.969453 167.980315 
L 149.40606 247.518507 
L 149.842667 239.714541 
L 150.279273 253.343408 
L 150.71588 263.077914 
L 151.152486 264.403805 
L 152.0257 266.286974 
L 152.462306 266.492348 
L 152.898913 267.209163 
L 153.772126 264.35397 
L 154.645339 269.635535 
L 155.081946 271.48609 
L 155.955159 279.990291 
L 156.391766 282.865755 
L 156.828373 284.614388 
L 157.264979 282.936483 
L 157.701586 284.221585 
L 158.138192 282.118895 
L 158.574799 284.443984 
L 159.011406 280.250825 
L 159.448012 284.036114 
L 159.884619 284.201321 
L 160.321226 284.168023 
L 160.757832 283.050728 
L 161.194439 282.459002 
L 161.631045 278.521863 
L 162.067652 278.810288 
L 162.504259 278.76912 
L 162.940865 278.044449 
L 163.377472 278.728458 
L 163.814079 278.056563 
L 164.250685 278.576141 
L 164.687292 277.790873 
L 165.123898 277.715482 
L 165.560505 278.07811 
L 165.997112 277.95273 
L 166.433718 278.331503 
L 167.306931 277.904635 
L 167.743538 278.379984 
L 168.180145 277.761074 
L 168.616751 277.984335 
L 169.053358 277.819437 
L 169.489965 278.539451 
L 169.926571 277.512484 
L 170.363178 276.89119 
L 170.799784 276.471508 
L 171.236391 275.006289 
L 171.672998 275.883939 
L 172.109604 275.164191 
L 172.982818 274.704745 
L 173.419424 274.721667 
L 173.856031 275.180374 
L 174.729244 274.420322 
L 175.165851 274.493346 
L 175.602457 273.483375 
L 176.039064 273.934766 
L 176.475671 273.44485 
L 176.912277 272.719723 
L 177.348884 273.181595 
L 177.78549 272.627662 
L 178.222097 273.421096 
L 178.658704 272.382244 
L 179.09531 272.101121 
L 179.531917 271.547801 
L 179.968524 271.267049 
L 180.40513 270.280765 
L 180.841737 270.456349 
L 181.278343 268.890871 
L 181.71495 270.97754 
L 182.151557 268.613951 
L 182.588163 268.845686 
L 183.02477 268.426875 
L 183.461377 268.256717 
L 183.897983 267.384904 
L 184.33459 267.086608 
L 184.771196 266.926882 
L 185.207803 265.587149 
L 185.64441 265.881897 
L 186.081016 265.258237 
L 186.517623 265.54637 
L 186.954229 264.15788 
L 187.390836 263.737455 
L 187.827443 261.990161 
L 188.264049 263.965734 
L 188.700656 261.004848 
L 189.137263 264.037056 
L 189.573869 260.44267 
L 190.010476 260.466808 
L 190.447082 192.788017 
L 190.883689 236.136935 
L 191.320296 172.892864 
L 191.756902 225.74617 
L 192.193509 198.363622 
L 192.630116 214.898621 
L 193.066722 205.995644 
L 193.503329 210.711602 
L 193.939935 213.00169 
L 194.376542 207.90191 
L 194.813149 212.703619 
L 195.249755 208.785414 
L 195.686362 212.235551 
L 196.122969 210.45465 
L 196.559575 211.880545 
L 196.996182 212.213864 
L 197.432788 211.831138 
L 197.869395 212.843414 
L 198.306002 213.173546 
L 198.742608 213.905295 
L 199.179215 214.075532 
L 199.615822 214.623625 
L 200.052428 214.456497 
L 200.489035 214.730651 
L 200.925641 215.242829 
L 201.798855 215.817512 
L 202.235461 219.086312 
L 202.672068 226.589581 
L 203.108675 225.866383 
L 203.545281 226.364865 
L 203.981888 227.064205 
L 204.418494 228.707803 
L 204.855101 227.111109 
L 205.291708 230.109927 
L 205.728314 229.062372 
L 206.164921 229.903178 
L 207.038134 230.252228 
L 207.474741 231.77159 
L 207.911347 235.168972 
L 208.347954 235.485168 
L 208.784561 236.382974 
L 209.221167 236.576912 
L 209.657774 236.325238 
L 210.09438 236.640006 
L 210.530987 239.650415 
L 211.4042 262.722905 
L 211.840807 263.509632 
L 212.277414 263.515644 
L 213.150627 264.847693 
L 213.587233 265.994992 
L 214.02384 266.341237 
L 214.460447 267.594871 
L 214.897053 267.939576 
L 215.33366 269.585697 
L 215.770267 268.897193 
L 216.206873 269.651743 
L 216.64348 270.027653 
L 217.080086 269.732682 
L 217.516693 270.475971 
L 217.9533 270.196766 
L 218.389906 270.985133 
L 218.826513 271.131172 
L 219.26312 271.953277 
L 219.699726 271.778414 
L 220.136333 276.985172 
L 221.009546 282.112198 
L 221.446153 284.515301 
L 221.882759 284.145624 
L 222.319366 285.173463 
L 222.755973 284.055559 
L 223.192579 284.211004 
L 223.629186 279.998997 
L 224.065792 284.153064 
L 224.502399 283.551902 
L 224.939006 284.313562 
L 225.812219 281.485881 
L 226.248826 282.404469 
L 227.122039 280.653128 
L 227.558645 278.753871 
L 227.995252 278.834156 
L 228.431859 278.306534 
L 228.868465 277.4396 
L 229.305072 277.480655 
L 229.741678 276.853323 
L 230.178285 277.022284 
L 230.614892 276.942026 
L 231.051498 275.848586 
L 231.488105 276.233744 
L 231.924712 275.826572 
L 232.361318 275.781391 
L 233.234531 275.182553 
L 234.107745 275.715385 
L 234.544351 274.752369 
L 235.417565 274.305667 
L 235.854171 274.325838 
L 236.290778 273.990051 
L 236.727384 274.573078 
L 237.163991 273.754811 
L 237.600598 273.890127 
L 238.910418 270.218038 
L 239.347024 269.029722 
L 239.783631 269.595064 
L 240.220237 267.026021 
L 240.656844 265.592523 
L 241.093451 265.12864 
L 241.530057 261.301613 
L 241.966664 261.59116 
L 242.403271 259.66733 
L 242.839877 259.951109 
L 243.276484 257.128847 
L 243.71309 255.378907 
L 244.149697 252.299586 
L 244.586304 253.138678 
L 245.02291 251.008067 
L 245.459517 251.391432 
L 245.896124 250.515539 
L 246.33273 250.847781 
L 246.769337 250.728232 
L 247.205943 251.481325 
L 247.64255 248.510889 
L 248.079157 248.140509 
L 248.515763 247.455903 
L 248.95237 247.115876 
L 249.388976 246.230429 
L 249.825583 246.971805 
L 250.26219 245.267694 
L 250.698796 245.995974 
L 251.135403 245.6454 
L 251.57201 244.753109 
L 252.008616 244.370874 
L 252.445223 245.448799 
L 252.881829 244.010573 
L 253.318436 244.057923 
L 255.064863 241.694465 
L 255.501469 241.990234 
L 255.938076 240.224246 
L 256.374682 242.087336 
L 256.811289 238.88675 
L 257.247896 240.22296 
L 257.684502 238.727541 
L 258.121109 239.875877 
L 258.994322 238.265838 
L 259.430929 238.81831 
L 259.867535 238.189413 
L 260.304142 238.265017 
L 260.740749 237.769715 
L 261.177355 237.493858 
L 261.613962 237.421901 
L 262.050569 233.999608 
L 262.487175 235.394958 
L 262.923782 232.225157 
L 263.360388 232.834794 
L 264.233602 230.49104 
L 264.670208 230.929421 
L 265.106815 229.619589 
L 265.543422 228.667096 
L 265.980028 228.927755 
L 266.416635 227.288178 
L 266.853241 227.680827 
L 267.289848 227.218322 
L 268.163061 225.637436 
L 268.599668 224.373107 
L 269.036274 223.730492 
L 269.472881 224.036165 
L 269.909488 223.372789 
L 270.346094 223.517533 
L 270.782701 222.937827 
L 271.219308 222.759207 
L 271.655914 222.713085 
L 272.092521 221.791108 
L 272.529127 222.150917 
L 273.402341 220.92172 
L 273.838947 193.002516 
L 274.275554 255.880115 
L 274.712161 269.981042 
L 275.148767 244.035966 
L 275.585374 281.579076 
L 276.02198 267.274609 
L 276.458587 283.98333 
L 276.895194 278.461283 
L 277.3318 279.705777 
L 278.205014 280.177761 
L 278.64162 280.52258 
L 279.078227 278.325244 
L 279.514833 279.483869 
L 279.95144 278.396725 
L 280.388047 278.907062 
L 280.824653 278.737293 
L 281.26126 280.29366 
L 281.697867 278.254047 
L 282.134473 278.470118 
L 282.57108 277.707205 
L 283.007686 278.55775 
L 283.444293 278.262514 
L 283.8809 279.50409 
L 284.317506 279.360483 
L 284.754113 278.532029 
L 285.19072 278.835378 
L 286.063933 278.847417 
L 286.500539 278.578533 
L 286.937146 278.746662 
L 287.373753 278.065879 
L 287.810359 278.861902 
L 288.246966 277.856965 
L 288.683573 277.795636 
L 289.556786 277.996819 
L 289.993392 277.279147 
L 290.429999 277.051848 
L 290.866606 278.547295 
L 291.303212 276.786238 
L 291.739819 278.156276 
L 292.176425 277.099579 
L 292.613032 276.743482 
L 293.049639 275.944202 
L 293.486245 276.142975 
L 293.922852 274.971 
L 294.359459 275.196186 
L 294.796065 274.446901 
L 295.232672 274.331048 
L 295.669278 275.27778 
L 296.105885 274.599602 
L 296.542492 274.606329 
L 296.979098 273.740659 
L 297.415705 273.924992 
L 297.852312 273.195966 
L 298.288918 273.630019 
L 299.162131 273.078184 
L 299.598738 273.384945 
L 300.908558 271.032969 
L 301.345165 271.011504 
L 301.781771 270.215766 
L 302.218378 270.617093 
L 302.654984 270.157713 
L 303.091591 269.941408 
L 303.528198 269.251466 
L 303.964804 268.909947 
L 304.401411 268.152511 
L 305.274624 265.899699 
L 305.711231 264.08862 
L 306.147837 262.903429 
L 306.584444 260.53074 
L 307.021051 261.644117 
L 307.457657 259.226103 
L 307.894264 259.481618 
L 308.330871 255.309276 
L 308.767477 254.309063 
L 309.204084 250.980781 
L 309.64069 252.622033 
L 310.077297 248.578718 
L 310.513904 249.565175 
L 310.95051 246.675465 
L 311.387117 246.834976 
L 311.823723 245.317474 
L 312.696937 244.521396 
L 313.57015 244.635097 
L 314.443363 242.933286 
L 314.87997 243.055623 
L 315.316576 241.89348 
L 315.753183 242.074422 
L 316.18979 241.461813 
L 316.626396 241.341312 
L 317.063003 241.364062 
L 317.49961 241.666197 
L 317.936216 241.723911 
L 318.372823 239.978763 
L 318.809429 240.015065 
L 319.246036 240.617143 
L 319.682643 239.810365 
L 320.119249 239.8775 
L 320.555856 237.774304 
L 320.992463 234.741945 
L 322.302282 228.627373 
L 322.738889 227.644975 
L 323.175496 225.857143 
L 323.612102 225.027937 
L 324.048709 222.230785 
L 324.485316 221.827461 
L 324.921922 220.645108 
L 325.358529 217.039044 
L 325.795135 219.793682 
L 326.668349 217.738028 
L 327.104955 214.778323 
L 327.541562 215.918305 
L 327.978169 214.505963 
L 328.414775 214.116635 
L 328.851382 212.861876 
L 329.287988 212.540159 
L 329.724595 211.126247 
L 330.597808 207.232775 
L 331.034415 206.724317 
L 331.471022 206.889457 
L 331.907628 206.895915 
L 332.344235 205.409078 
L 332.780841 205.722878 
L 333.217448 204.799284 
L 333.654055 204.548836 
L 334.090661 203.746201 
L 334.527268 203.956812 
L 334.963874 203.432431 
L 335.400481 201.302289 
L 335.837088 201.357904 
L 336.273694 199.530408 
L 336.710301 200.892225 
L 337.146908 201.879303 
L 337.583514 200.193743 
L 338.020121 201.551643 
L 338.456727 202.034155 
L 338.893334 200.06579 
L 339.329941 161.14971 
L 339.766547 160.536651 
L 340.203154 160.748091 
L 340.639761 161.69393 
L 341.076367 160.722405 
L 341.512974 161.059525 
L 341.94958 159.716837 
L 342.386187 160.881682 
L 342.822794 160.707308 
L 343.2594 158.830894 
L 343.696007 159.623762 
L 344.132614 158.508611 
L 344.56922 160.299436 
L 345.005827 158.73887 
L 345.442433 160.149201 
L 345.87904 159.548634 
L 346.315647 160.148425 
L 347.18886 160.366807 
L 347.625467 161.310363 
L 348.49868 157.979304 
L 348.935286 158.324457 
L 349.371893 157.34818 
L 350.245106 154.920212 
L 350.681713 154.964795 
L 351.11832 154.833762 
L 351.554926 154.57264 
L 351.991533 154.780675 
L 352.864746 153.863095 
L 353.301353 154.070012 
L 353.737959 153.300084 
L 354.174566 151.783152 
L 354.611172 151.596245 
L 355.047779 149.924341 
L 355.484386 150.169964 
L 355.920992 151.635895 
L 356.357599 151.175454 
L 356.794206 159.028299 
L 357.230812 194.679863 
L 357.667419 208.748229 
L 358.104025 488.555294 
L 358.540632 204.345688 
L 358.977239 280.663204 
L 359.413845 249.379839 
L 360.287059 258.45131 
L 360.723665 248.272639 
L 361.160272 258.020425 
L 361.596878 254.14963 
L 362.033485 256.294432 
L 362.906698 255.490405 
L 363.343305 256.747362 
L 363.779912 254.229795 
L 364.216518 256.787452 
L 364.653125 254.129034 
L 365.089731 254.107275 
L 365.526338 253.08589 
L 365.962945 253.571842 
L 366.399551 251.887322 
L 366.836158 252.443213 
L 367.272765 249.298999 
L 367.709371 252.119001 
L 368.145978 249.188015 
L 368.582584 250.424962 
L 369.019191 249.751386 
L 369.455798 249.64653 
L 369.892404 247.489518 
L 370.329011 247.998827 
L 370.765618 246.857055 
L 371.202224 247.79417 
L 371.638831 247.608618 
L 372.948651 245.616394 
L 373.385257 245.306239 
L 373.821864 245.240788 
L 374.25847 243.419396 
L 374.695077 244.788064 
L 375.131684 243.624349 
L 375.56829 243.363852 
L 376.441504 241.915841 
L 376.87811 241.92433 
L 377.314717 241.370115 
L 377.751323 241.181539 
L 378.18793 241.582491 
L 378.624537 240.61262 
L 379.49775 240.110506 
L 380.370963 238.853917 
L 380.80757 238.810201 
L 381.244176 237.685405 
L 381.680783 238.091773 
L 382.11739 235.114154 
L 382.553996 237.773926 
L 382.990603 234.519436 
L 383.42721 237.182571 
L 383.863816 233.717042 
L 384.300423 235.273456 
L 384.737029 234.838578 
L 385.173636 233.383745 
L 385.610243 233.376648 
L 386.046849 232.751252 
L 386.483456 231.41868 
L 386.920063 227.963255 
L 387.356669 227.621048 
L 387.793276 225.468725 
L 388.229882 225.66274 
L 388.666489 220.282896 
L 389.539702 222.184421 
L 389.976309 218.689568 
L 390.412916 219.638108 
L 390.849522 218.703334 
L 391.286129 217.260697 
L 391.722735 216.49081 
L 392.159342 216.526955 
L 392.595949 215.661076 
L 393.469162 211.009946 
L 393.905769 205.690514 
L 394.342375 206.407768 
L 394.778982 204.515302 
L 395.215588 203.825338 
L 395.652195 201.31497 
L 396.088802 200.299195 
L 396.525408 200.00744 
L 396.962015 200.884142 
L 397.398621 202.146754 
L 397.835228 202.568515 
L 398.271835 201.897031 
L 399.145048 203.518593 
L 399.581655 201.817369 
L 400.018261 197.291193 
L 400.454868 165.697849 
L 400.891474 160.829666 
L 401.328081 161.636315 
L 401.764688 161.061433 
L 402.201294 161.376268 
L 402.637901 160.221983 
L 403.074508 161.981594 
L 403.511114 160.956656 
L 403.947721 162.604744 
L 404.384327 163.692378 
L 404.820934 163.407137 
L 405.257541 162.904898 
L 405.694147 160.967306 
L 406.130754 157.827745 
L 406.567361 155.75542 
L 407.003967 154.549476 
L 407.440574 154.343494 
L 407.87718 152.835364 
L 408.313787 150.374146 
L 409.187 151.459233 
L 409.623607 149.523682 
L 410.060214 151.009726 
L 410.49682 150.048139 
L 410.933427 150.660889 
L 411.370033 151.521462 
L 411.80664 151.431032 
L 412.243247 153.209089 
L 412.679853 152.53899 
L 413.553067 153.910589 
L 414.862886 154.055645 
L 415.299493 153.987579 
L 415.7361 153.77823 
L 416.172706 154.251825 
L 416.609313 154.47815 
L 417.045919 154.481417 
L 417.482526 155.028125 
L 418.355739 154.717713 
L 418.792346 156.891483 
L 419.228953 156.085066 
L 419.665559 156.889821 
L 420.102166 156.752818 
L 420.975379 157.228095 
L 421.411986 157.762634 
L 421.848592 157.354481 
L 422.285199 158.111904 
L 423.158412 158.301854 
L 423.595019 158.859615 
L 424.468232 158.790612 
L 424.904839 159.135043 
L 425.341445 159.639995 
L 425.778052 158.689854 
L 426.214659 158.699531 
L 427.087872 160.183947 
L 427.524478 158.700322 
L 427.961085 158.866325 
L 428.397692 158.75794 
L 428.834298 160.482132 
L 429.270905 160.821576 
L 429.707512 160.730796 
L 430.580725 161.170682 
L 431.017331 160.800946 
L 431.453938 159.530273 
L 431.890545 160.438551 
L 432.327151 159.865799 
L 432.763758 160.488129 
L 433.200365 159.700094 
L 433.636971 160.939535 
L 434.073578 159.673774 
L 434.510184 159.844338 
L 434.946791 159.524 
L 435.383398 160.725782 
L 435.820004 161.421643 
L 436.256611 161.08062 
L 436.693217 161.371782 
L 437.129824 161.211488 
L 437.566431 161.521341 
L 438.003037 160.177872 
L 438.439644 161.314602 
L 438.876251 161.739988 
L 439.312857 165.514831 
L 439.749464 167.64274 
L 440.18607 214.899499 
L 440.622677 214.34615 
L 441.059284 208.528619 
L 441.49589 240.274896 
L 441.932497 224.813912 
L 442.369104 217.146882 
L 442.80571 233.932667 
L 443.242317 214.756814 
L 443.678923 223.323571 
L 444.11553 215.545627 
L 444.552137 221.274017 
L 444.988743 219.980657 
L 445.42535 218.087125 
L 445.861957 218.928983 
L 446.298563 217.882492 
L 446.73517 218.149806 
L 447.608383 216.655306 
L 448.04499 216.265401 
L 448.481596 215.427414 
L 448.918203 215.753048 
L 449.791416 214.194052 
L 450.228023 214.040057 
L 451.101236 213.4195 
L 451.537843 212.771929 
L 451.974449 210.107203 
L 452.411056 208.17291 
L 452.847663 207.034212 
L 453.284269 206.762683 
L 453.720876 205.922233 
L 454.157482 205.843282 
L 454.594089 205.283324 
L 455.030696 205.17498 
L 455.467302 204.2519 
L 455.903909 204.193244 
L 456.340516 203.923002 
L 456.777122 203.39086 
L 457.650335 201.288978 
L 458.086942 200.872951 
L 458.523549 202.066046 
L 458.960155 202.545867 
L 459.396762 201.178587 
L 459.833368 202.75505 
L 460.269975 201.643509 
L 460.706582 200.899061 
L 461.143188 161.617625 
L 461.579795 161.561534 
L 462.453008 159.990426 
L 462.889615 160.552563 
L 463.326221 160.250554 
L 463.762828 159.384345 
L 464.199435 160.937274 
L 464.636041 160.207519 
L 465.072648 160.973028 
L 465.509255 160.082222 
L 465.945861 162.099501 
L 466.382468 160.489031 
L 466.819074 160.659429 
L 467.255681 160.40016 
L 467.692288 159.373153 
L 468.128894 159.771053 
L 468.565501 159.735253 
L 469.002108 158.805796 
L 469.438714 158.833169 
L 469.875321 160.619694 
L 470.311927 160.141845 
L 470.748534 158.319735 
L 471.185141 155.678148 
L 471.621747 155.399416 
L 472.494961 153.136641 
L 472.931567 151.46024 
L 473.368174 150.737141 
L 473.80478 151.187429 
L 475.1146 151.104174 
L 475.551207 151.395924 
L 475.987814 150.348678 
L 476.42442 150.181003 
L 477.297633 154.162231 
L 477.73424 154.248777 
L 478.170847 154.80703 
L 478.607453 155.05164 
L 479.04406 156.386215 
L 479.480666 156.713382 
L 479.917273 156.466649 
L 480.790486 156.686219 
L 481.6637 157.108185 
L 482.100306 158.04479 
L 483.410126 158.090049 
L 483.846733 157.651723 
L 484.283339 158.66521 
L 484.719946 157.762297 
L 485.156553 157.858567 
L 485.593159 158.686062 
L 486.029766 158.79992 
L 486.466372 158.114719 
L 486.902979 158.132985 
L 487.339586 158.46706 
L 487.776192 160.02505 
L 488.649406 161.071923 
L 489.086012 160.522674 
L 489.522619 161.439978 
L 489.959225 161.063793 
L 490.395832 161.625189 
L 490.832439 159.656509 
L 491.269045 159.679546 
L 491.705652 161.561145 
L 492.142259 165.183851 
L 492.578865 171.630825 
L 493.452078 173.962628 
L 493.888685 173.821551 
L 494.325292 178.847725 
L 494.761898 179.323604 
L 495.198505 179.547316 
L 495.635112 180.321928 
L 496.071718 179.88758 
L 496.508325 181.488309 
L 496.944931 180.134171 
L 497.381538 181.179219 
L 498.254751 181.792842 
L 498.691358 181.348788 
L 499.127964 182.536411 
L 499.564571 182.436943 
L 500.001178 182.965545 
L 500.437784 182.502219 
L 500.874391 183.374372 
L 501.310998 182.808898 
L 501.747604 182.994315 
L 502.184211 184.004862 
L 503.057424 186.706608 
L 503.494031 186.771909 
L 503.930637 187.655533 
L 504.367244 187.52085 
L 505.240457 188.380844 
L 505.677064 189.310696 
L 506.11367 189.153267 
L 506.986884 194.97673 
L 507.42349 194.604222 
L 507.860097 194.743343 
L 508.296704 196.681906 
L 508.73331 194.86455 
L 509.169917 195.410949 
L 509.606523 195.142829 
L 510.04313 196.596 
L 510.479737 195.102963 
L 510.916343 196.824011 
L 511.35295 196.847244 
L 511.789557 195.675964 
L 512.226163 197.167706 
L 512.66277 196.721433 
L 513.099376 197.074274 
L 513.535983 199.041401 
L 513.97259 198.021137 
L 514.409196 200.627074 
L 514.845803 198.015459 
L 515.28241 200.458508 
L 515.719016 198.261741 
L 516.155623 198.514094 
L 516.592229 198.63629 
L 517.028836 197.894787 
L 517.465443 197.898129 
L 517.902049 204.899071 
L 518.338656 205.143483 
L 518.775263 205.646125 
L 519.211869 205.538181 
L 519.648476 206.225938 
L 520.085082 205.777872 
L 520.958296 206.209081 
L 521.394902 206.428811 
L 521.831509 206.958572 
L 522.704722 208.901945 
L 523.141329 209.158259 
L 523.577935 235.166948 
L 524.451149 168.741373 
L 524.887755 168.519251 
L 525.324362 153.813668 
L 525.760968 152.54601 
L 526.197575 147.820269 
L 526.634182 155.268071 
L 527.070788 149.927238 
L 527.507395 150.556377 
L 527.944002 149.994228 
L 528.380608 151.043616 
L 528.817215 150.349166 
L 529.253821 150.808638 
L 529.690428 150.76985 
L 530.127035 150.145916 
L 530.563641 151.737923 
L 531.000248 151.411588 
L 531.436855 151.612288 
L 531.873461 151.402216 
L 532.310068 151.61096 
L 532.746674 150.167419 
L 533.183281 151.358462 
L 533.619888 150.852187 
L 534.056494 151.129278 
L 534.493101 152.381499 
L 534.929708 153.073555 
L 535.802921 153.332522 
L 536.239527 154.373059 
L 536.676134 154.904438 
L 537.112741 154.162318 
L 537.985954 154.520077 
L 538.422561 154.43296 
L 538.859167 154.121869 
L 539.73238 154.443464 
L 540.605594 156.032337 
L 541.0422 156.220743 
L 541.478807 156.826466 
L 541.915413 156.89355 
L 542.35202 157.148375 
L 542.788627 156.975037 
L 543.66184 157.999787 
L 544.535053 157.520621 
L 544.97166 157.938543 
L 545.408266 157.796297 
L 545.844873 158.004108 
L 546.28148 158.794906 
L 546.718086 158.137367 
L 547.154693 159.368099 
L 547.5913 159.631583 
L 548.027906 159.361329 
L 548.464513 159.998973 
L 549.337726 159.554247 
L 549.774333 160.293559 
L 550.210939 159.721219 
L 550.647546 158.848869 
L 551.084153 161.214136 
L 551.520759 159.193502 
L 551.957366 159.471845 
L 552.393972 159.010359 
L 552.830579 159.890579 
L 553.703792 161.181966 
L 554.140399 160.736524 
L 554.577006 161.243351 
L 555.450219 161.19336 
L 555.886825 160.758497 
L 556.323432 161.11023 
L 556.760039 164.683057 
L 557.196645 170.04053 
L 557.633252 172.75242 
L 558.069859 172.788357 
L 558.506465 174.624382 
L 559.379678 179.110122 
L 559.816285 180.307423 
L 560.252892 179.821699 
L 560.689498 181.480287 
L 561.126105 182.429516 
L 561.562711 183.823184 
L 561.999318 183.454463 
L 562.435925 184.188313 
L 562.872531 185.529758 
L 563.309138 186.458548 
L 563.745745 186.69736 
L 564.182351 186.732773 
L 564.618958 187.466634 
L 565.055564 187.74419 
L 565.492171 187.735748 
L 565.928778 188.501603 
L 566.365384 187.647241 
L 566.801991 189.098064 
L 567.238598 189.13093 
L 567.675204 194.55438 
L 568.111811 194.361472 
L 568.548417 194.7545 
L 568.985024 194.586878 
L 569.421631 193.733016 
L 569.858237 195.559766 
L 570.294844 195.435735 
L 570.731451 197.875549 
L 571.168057 198.80314 
L 571.604664 198.474474 
L 572.04127 200.879992 
L 572.477877 200.889376 
L 572.914484 200.302656 
L 573.35109 200.594493 
L 573.787697 206.266332 
L 574.224304 206.490941 
L 574.66091 206.113185 
L 575.097517 207.768939 
L 575.97073 212.080189 
L 576.407337 213.265164 
L 576.843943 212.98011 
L 577.28055 215.596102 
L 577.717157 214.265094 
L 578.153763 214.135721 
L 578.59037 214.892851 
L 579.026976 215.327332 
L 579.463583 215.566619 
L 579.90019 218.614229 
L 580.336796 225.174716 
L 580.773403 227.168412 
L 581.21001 226.147089 
L 581.646616 227.277278 
L 582.519829 228.571523 
L 582.956436 228.276913 
L 583.393043 229.341342 
L 583.829649 229.200166 
L 584.266256 231.216096 
L 584.702862 230.157405 
L 585.139469 231.349172 
L 585.576076 234.40298 
L 586.012682 234.792463 
L 586.449289 234.736011 
L 586.885896 236.653394 
L 587.322502 236.722851 
L 587.759109 236.558042 
L 588.195715 238.860488 
L 588.632322 236.783584 
L 589.068929 254.018128 
L 589.505535 262.074753 
L 589.942142 263.70345 
L 590.378749 263.702791 
L 591.251962 266.112986 
L 591.688568 267.095275 
L 592.125175 266.730764 
L 592.561782 267.761293 
L 594.308208 268.693925 
L 594.744815 270.410605 
L 595.181421 269.52759 
L 595.618028 270.251357 
L 596.054635 270.599365 
L 596.491241 270.631198 
L 597.801061 272.869413 
L 598.237668 273.405758 
L 598.674274 273.46971 
L 599.110881 274.645839 
L 599.547488 274.316292 
L 599.984094 277.828777 
L 600.420701 275.99137 
L 600.857308 277.575215 
L 601.293914 277.552494 
L 601.730521 278.804294 
L 602.167127 278.690116 
L 602.603734 279.924635 
L 603.040341 279.621583 
L 603.913554 280.401967 
L 604.786767 279.309397 
L 605.223374 279.77547 
L 605.65998 279.17405 
L 606.533194 278.593561 
L 606.9698 232.320536 
L 607.406407 241.512065 
L 607.843013 93.261176 
L 608.27962 184.903517 
L 608.716227 166.228062 
L 609.152833 201.284061 
L 609.58944 168.304746 
L 610.026047 180.14026 
L 610.462653 176.013753 
L 610.89926 176.121673 
L 611.335866 179.385513 
L 611.772473 174.926587 
L 612.20908 177.788187 
L 612.645686 174.659203 
L 613.082293 174.799816 
L 613.5189 177.35863 
L 613.955506 174.62808 
L 614.392113 178.66193 
L 614.828719 178.205877 
L 615.265326 178.404402 
L 615.701933 178.421799 
L 616.138539 179.603894 
L 616.575146 178.740212 
L 617.011753 179.865385 
L 617.448359 179.765104 
L 617.884966 179.847398 
L 618.758179 179.499349 
L 619.194786 179.591432 
L 620.067999 179.500395 
L 620.504606 180.330933 
L 620.941212 180.640848 
L 621.377819 181.208627 
L 621.814425 181.374544 
L 622.251032 182.401987 
L 622.687639 182.957723 
L 623.124245 183.078407 
L 623.560852 183.328914 
L 623.997459 182.996427 
L 624.434065 184.696097 
L 624.870672 184.960329 
L 625.743885 186.070293 
L 626.617098 186.346628 
L 627.053705 187.285913 
L 627.490311 187.598603 
L 627.926918 191.614412 
L 628.363525 192.060863 
L 629.673345 192.717401 
L 630.109951 191.795561 
L 630.546558 192.557706 
L 630.983164 192.019583 
L 631.419771 193.294781 
L 631.856378 193.271598 
L 632.729591 194.421505 
L 633.166198 194.653966 
L 633.602804 194.483313 
L 634.476017 194.973675 
L 634.912624 196.007114 
L 635.785837 196.085998 
L 636.222444 196.591324 
L 637.095657 199.51867 
L 637.532264 198.823875 
L 637.96887 199.06452 
L 638.405477 204.046436 
L 638.842084 204.644846 
L 639.27869 204.621509 
L 639.715297 204.745048 
L 640.151904 206.879888 
L 640.58851 199.814229 
L 641.025117 200.233608 
L 641.461723 199.938146 
L 641.89833 199.98699 
L 642.334937 200.237408 
L 642.771543 200.841562 
L 644.081363 201.860968 
L 644.51797 201.878987 
L 644.954576 202.067411 
L 645.391183 201.531707 
L 645.82779 201.640553 
L 646.264396 201.199018 
L 648.010823 201.413412 
L 648.447429 201.380339 
L 648.884036 201.615436 
L 649.320643 220.861815 
L 649.757249 215.647743 
L 650.193856 214.697722 
L 650.630462 214.017274 
L 651.067069 214.805147 
L 651.503676 213.095186 
L 651.940282 212.653534 
L 652.376889 210.501659 
L 652.813496 211.637554 
L 653.250102 209.541372 
L 653.686709 212.180768 
L 654.123315 211.172487 
L 654.559922 214.224663 
L 654.996529 211.705025 
L 655.433135 211.122377 
L 655.869742 213.584251 
L 656.306349 210.25945 
L 656.742955 212.105071 
L 657.179562 211.752033 
L 657.179562 211.752033 
" clip-path="url(#pe717bdadf8)" style="fill: none; stroke: #d30015; stroke-width: 2; stroke-linecap: square"/>
   </g>
   <g id="line2d_24">
    <path d="M 103.562365 241.518311 
L 103.998971 241.002462 
L 104.435578 240.08288 
L 104.872184 241.697757 
L 105.308791 239.499738 
L 105.745398 242.617339 
L 106.182004 241.069751 
L 106.618611 241.675328 
L 107.055218 239.544597 
L 107.491824 240.867885 
L 107.928431 237.996995 
L 108.365037 242.550041 
L 108.801644 239.656736 
L 109.238251 242.213616 
L 109.674857 238.423153 
L 110.111464 242.550051 
L 110.548071 241.249179 
L 110.984677 240.957603 
L 111.421284 240.284747 
L 111.85789 241.428602 
L 112.294497 241.922049 
L 112.731104 240.688466 
L 113.16771 241.428616 
L 113.604317 239.746454 
L 114.040924 242.079043 
L 114.47753 239.656736 
L 114.914137 240.172599 
L 115.350743 238.826863 
L 115.78735 241.047322 
L 116.223957 238.759584 
L 116.660563 241.832331 
L 117.09717 239.567022 
L 117.533777 240.957608 
L 117.970383 239.006296 
L 118.40699 242.527616 
L 118.843596 239.881028 
L 119.280203 238.243716 
L 119.71681 241.18189 
L 120.153416 246.878792 
L 120.590023 248.403946 
L 121.02663 248.40395 
L 121.463236 251.38697 
L 121.899843 251.29726 
L 122.336449 255.199862 
L 122.773056 251.005685 
L 123.209663 254.706424 
L 123.646269 252.03741 
L 124.082876 256.0073 
L 124.519482 254.571851 
L 124.956089 257.397881 
L 125.829302 255.603581 
L 126.265909 257.936164 
L 126.702516 257.554884 
L 127.139122 255.738154 
L 127.575729 256.366156 
L 128.012335 258.519316 
L 128.448942 257.151169 
L 128.885549 259.192181 
L 129.322155 256.097019 
L 129.758762 259.349184 
L 130.195369 257.779166 
L 130.631975 258.833321 
L 131.068582 254.885852 
L 131.505188 258.967894 
L 131.941795 256.81473 
L 132.378402 259.035179 
L 132.815008 255.513862 
L 133.251615 259.483753 
L 133.688222 258.676323 
L 134.124828 258.407177 
L 134.561435 257.420302 
L 134.998041 256.074589 
L 135.434648 258.339884 
L 135.871255 257.689457 
L 136.307861 259.595905 
L 136.744468 257.151165 
L 137.181075 258.295024 
L 137.617681 257.218449 
L 138.054288 259.730469 
L 138.490894 256.321292 
L 138.927501 259.012749 
L 139.364108 255.379289 
L 139.800714 260.784624 
L 140.237321 259.080033 
L 140.673928 259.192177 
L 141.110534 257.375452 
L 141.547141 258.631459 
L 141.983747 258.923035 
L 142.420354 258.339879 
L 142.856961 259.147327 
L 143.293567 257.510025 
L 143.730174 259.708044 
L 144.16678 257.196019 
L 144.603387 259.349184 
L 145.039994 257.083876 
L 145.4766 258.362313 
L 145.913207 256.478299 
L 146.349814 258.92304 
L 146.78642 255.895152 
L 147.223027 258.766028 
L 147.659633 257.465165 
L 148.09624 261.188334 
L 148.532847 245.5555 
L 148.969453 161.559827 
L 149.40606 244.187344 
L 149.842667 227.38821 
L 150.279273 253.629848 
L 150.71588 263.139637 
L 151.152486 260.111768 
L 151.589093 268.118823 
L 152.0257 266.840377 
L 153.33552 273.367151 
L 153.772126 276.305316 
L 154.208733 276.843608 
L 154.645339 277.89775 
L 155.518553 281.508784 
L 155.955159 280.656496 
L 156.391766 280.70135 
L 156.828373 280.207917 
L 157.264979 278.817345 
L 157.701586 282.652658 
L 158.138192 281.755505 
L 158.574799 281.733076 
L 159.011406 280.432213 
L 159.448012 282.675087 
L 160.321226 280.006064 
L 160.757832 282.675087 
L 161.631045 276.036165 
L 162.067652 280.589221 
L 162.504259 275.991315 
L 162.940865 277.292187 
L 163.377472 277.942623 
L 163.814079 275.542746 
L 164.250685 276.776319 
L 164.687292 276.439898 
L 165.123898 275.116597 
L 165.560505 277.067891 
L 165.997112 274.174581 
L 166.433718 277.695901 
L 166.870325 276.305316 
L 167.306931 277.808049 
L 167.743538 275.565171 
L 168.180145 274.062446 
L 168.616751 275.340879 
L 169.053358 272.04385 
L 169.489965 274.15216 
L 169.926571 273.120435 
L 170.363178 274.129726 
L 170.799784 274.443727 
L 171.236391 272.671861 
L 171.672998 273.613868 
L 172.109604 269.980408 
L 172.546211 274.466166 
L 172.982818 271.819558 
L 173.419424 274.197024 
L 173.856031 269.935549 
L 174.292637 271.954141 
L 174.729244 268.881398 
L 175.165851 271.864431 
L 176.039064 270.137406 
L 176.475671 269.957983 
L 176.912277 269.576689 
L 177.348884 268.275826 
L 177.78549 269.46455 
L 178.222097 269.711266 
L 178.658704 268.612261 
L 179.09531 269.150549 
L 179.531917 268.657116 
L 179.968524 270.204695 
L 180.40513 269.486975 
L 180.841737 267.087107 
L 181.278343 265.875949 
L 181.71495 268.186112 
L 182.151557 266.593669 
L 182.588163 266.369378 
L 183.02477 265.337662 
L 183.461377 265.135804 
L 183.897983 266.234814 
L 184.33459 264.126508 
L 184.771196 264.687221 
L 185.207803 263.094787 
L 185.64441 265.382512 
L 186.081016 261.995773 
L 186.517623 262.668643 
L 186.954229 260.560333 
L 187.390836 261.950914 
L 187.827443 260.941622 
L 188.264049 264.104069 
L 188.700656 258.496882 
L 189.137263 261.569629 
L 189.573869 258.339888 
L 190.010476 261.188344 
L 190.447082 170.8229 
L 190.883689 224.988329 
L 191.320296 154.091046 
L 191.756902 222.364174 
L 192.193509 183.405422 
L 192.630116 216.241123 
L 193.066722 200.047562 
L 193.503329 212.002078 
L 193.939935 210.319921 
L 194.376542 205.766889 
L 194.813149 215.209393 
L 195.249755 212.49552 
L 195.686362 217.026123 
L 196.122969 212.899226 
L 196.559575 216.487835 
L 197.432788 221.444592 
L 197.869395 221.803452 
L 198.306002 218.753139 
L 198.742608 217.743843 
L 199.179215 217.99056 
L 199.615822 219.179279 
L 200.052428 219.538139 
L 200.489035 220.839006 
L 200.925641 220.009143 
L 201.362248 216.734552 
L 201.798855 219.224143 
L 202.235461 220.928725 
L 202.672068 219.582998 
L 203.108675 220.569869 
L 203.545281 224.741626 
L 203.981888 223.05946 
L 204.418494 222.767889 
L 204.855101 221.040868 
L 205.728314 222.655741 
L 206.601527 221.534306 
L 207.474741 221.444592 
L 208.784561 222.835168 
L 209.221167 223.575318 
L 209.657774 223.822035 
L 210.09438 224.943474 
L 210.530987 228.262928 
L 211.4042 244.232203 
L 211.840807 249.525385 
L 212.71402 255.626001 
L 214.460447 262.915346 
L 214.897053 264.664787 
L 215.33366 265.651662 
L 215.770267 266.302098 
L 216.206873 268.253392 
L 217.080086 272.671861 
L 217.516693 273.255008 
L 217.9533 271.886852 
L 218.389906 272.851288 
L 218.826513 272.851288 
L 219.26312 272.088709 
L 219.699726 272.649436 
L 220.136333 277.763186 
L 220.572939 281.46393 
L 221.009546 280.701355 
L 221.446153 280.992935 
L 221.882759 279.647209 
L 222.319366 281.643357 
L 222.755973 284.962816 
L 223.192579 284.043234 
L 223.629186 280.297636 
L 224.065792 279.153767 
L 224.502399 280.948067 
L 224.939006 280.477073 
L 225.375612 279.781777 
L 225.812219 280.880778 
L 226.248826 280.566786 
L 226.685432 279.333194 
L 227.122039 283.527371 
L 227.558645 278.907059 
L 227.995252 279.243485 
L 228.431859 277.808045 
L 228.868465 276.798754 
L 229.305072 276.888463 
L 229.741678 272.245716 
L 230.178285 276.866038 
L 230.614892 274.959599 
L 231.051498 276.70903 
L 231.488105 273.658727 
L 231.924712 273.479299 
L 232.361318 273.434445 
L 232.797925 275.004453 
L 233.234531 275.610025 
L 233.671138 272.694295 
L 234.107745 274.354013 
L 234.544351 273.883009 
L 234.980958 275.722164 
L 235.417565 272.71672 
L 235.854171 274.511016 
L 236.290778 273.524149 
L 236.727384 275.677314 
L 237.163991 273.591434 
L 237.600598 273.613868 
L 238.037204 271.370998 
L 238.473811 271.662569 
L 238.910418 269.733691 
L 239.347024 270.653273 
L 239.783631 270.56355 
L 240.656844 264.104074 
L 241.093451 266.100236 
L 241.530057 263.139642 
L 241.966664 263.341504 
L 242.403271 257.128735 
L 242.839877 260.33605 
L 243.276484 255.244716 
L 243.71309 256.209153 
L 244.149697 251.566402 
L 244.586304 252.351406 
L 245.02291 249.345957 
L 245.459517 250.60197 
L 245.896124 248.336666 
L 246.33273 250.24311 
L 246.769337 247.260081 
L 247.205943 247.775935 
L 247.64255 245.376072 
L 248.079157 249.009527 
L 248.515763 245.398501 
L 248.95237 247.237656 
L 249.388976 244.635917 
L 249.825583 246.452647 
L 250.26219 243.379905 
L 250.698796 246.250799 
L 251.135403 241.316463 
L 251.57201 244.770491 
L 252.008616 242.68461 
L 252.445223 245.151776 
L 252.881829 239.948307 
L 253.318436 242.796763 
L 253.755043 240.890314 
L 254.191649 241.249179 
L 254.628256 239.38759 
L 255.064863 240.08288 
L 255.501469 240.374456 
L 255.938076 237.840006 
L 256.374682 240.778171 
L 256.811289 238.131582 
L 257.247896 239.118444 
L 257.684502 233.735543 
L 258.121109 237.436291 
L 258.557716 233.443967 
L 258.994322 234.632691 
L 259.430929 236.583998 
L 259.867535 234.901832 
L 260.304142 236.718576 
L 260.740749 232.07582 
L 261.177355 235.7317 
L 261.613962 234.946696 
L 262.050569 232.726252 
L 262.487175 233.645829 
L 262.923782 229.474077 
L 263.360388 232.591678 
L 263.796995 230.393659 
L 264.233602 230.146942 
L 264.670208 231.559948 
L 265.106815 227.36578 
L 265.543422 230.371234 
L 265.980028 228.487211 
L 266.416635 226.042488 
L 266.853241 229.384372 
L 267.289848 225.750908 
L 267.726455 224.517334 
L 268.163061 226.35648 
L 268.599668 222.835173 
L 269.036274 221.93803 
L 269.472881 224.315472 
L 269.909488 221.444592 
L 270.346094 220.682017 
L 270.782701 222.610891 
L 271.655914 220.771726 
L 272.092521 221.175441 
L 272.529127 222.095019 
L 272.965734 217.945701 
L 273.402341 216.734552 
L 273.838947 166.314717 
L 274.275554 235.731705 
L 274.712161 263.67793 
L 275.148767 242.482762 
L 275.585374 269.868269 
L 276.02198 247.080658 
L 276.458587 267.445963 
L 276.895194 256.994162 
L 277.3318 259.752894 
L 277.768407 263.834928 
L 278.64162 266.481526 
L 279.078227 266.638529 
L 279.514833 270.092547 
L 279.95144 267.333815 
L 280.388047 268.769264 
L 280.824653 272.627006 
L 281.26126 272.223282 
L 281.697867 271.124282 
L 282.134473 274.107301 
L 282.57108 271.886852 
L 283.007686 273.165289 
L 283.444293 271.819563 
L 283.8809 270.87756 
L 284.317506 274.600739 
L 284.754113 275.363309 
L 285.19072 274.107301 
L 285.627326 276.125883 
L 286.063933 275.27359 
L 286.500539 275.767033 
L 286.937146 273.905444 
L 287.810359 278.301478 
L 288.246966 274.040017 
L 288.683573 274.107296 
L 289.120179 273.972728 
L 289.556786 274.55587 
L 289.993392 276.013745 
L 290.429999 273.681157 
L 290.866606 276.484748 
L 291.303212 272.873718 
L 291.739819 275.385734 
L 292.176425 274.062442 
L 292.613032 275.96889 
L 293.049639 273.658713 
L 293.486245 272.828863 
L 293.922852 274.937169 
L 294.359459 273.658732 
L 294.796065 274.398872 
L 295.232672 271.729854 
L 295.669278 274.376447 
L 296.105885 273.838155 
L 296.542492 273.995157 
L 296.979098 271.931711 
L 297.415705 272.380289 
L 297.852312 269.733691 
L 298.288918 272.806425 
L 298.725525 271.303709 
L 299.162131 272.918577 
L 299.598738 270.294413 
L 300.035345 272.335426 
L 300.471951 270.047697 
L 300.908558 272.335435 
L 301.345165 270.204704 
L 302.218378 268.679545 
L 302.654984 268.746825 
L 303.091591 269.733691 
L 303.528198 270.249554 
L 303.964804 268.410399 
L 304.401411 267.849682 
L 304.838018 266.414242 
L 305.274624 267.535681 
L 305.711231 263.117217 
L 306.147837 263.633071 
L 306.584444 260.762186 
L 307.021051 262.063057 
L 307.457657 256.792309 
L 307.894264 257.734316 
L 308.330871 254.414853 
L 308.767477 255.626001 
L 309.204084 251.072973 
L 309.64069 251.117828 
L 310.077297 246.923651 
L 310.513904 246.856367 
L 310.95051 243.088334 
L 311.387117 245.241485 
L 311.823723 242.796753 
L 312.26033 242.594905 
L 312.696937 241.271604 
L 313.133543 243.581772 
L 313.57015 241.047317 
L 314.006757 243.514478 
L 314.443363 239.993162 
L 314.87997 243.828484 
L 315.316576 239.297876 
L 315.753183 242.393043 
L 316.18979 238.58016 
L 316.626396 239.410015 
L 317.063003 238.939021 
L 317.49961 238.647436 
L 317.936216 240.710882 
L 318.372823 237.50358 
L 318.809429 240.150165 
L 319.246036 237.54844 
L 319.682643 238.961446 
L 320.119249 236.023276 
L 320.555856 236.337282 
L 320.992463 235.036419 
L 321.429069 233.129966 
L 321.865676 232.389817 
L 322.302282 226.782633 
L 322.738889 226.042484 
L 323.175496 226.064913 
L 323.612102 221.153016 
L 324.048709 220.771731 
L 324.485316 222.924887 
L 324.921922 218.483993 
L 325.358529 215.276678 
L 325.795135 216.375697 
L 326.231742 214.850538 
L 327.104955 210.633931 
L 327.541562 210.028364 
L 327.978169 213.796383 
L 328.414775 214.536532 
L 328.851382 211.06008 
L 329.287988 212.271224 
L 329.724595 207.897624 
L 330.161202 207.11261 
L 330.597808 207.404195 
L 331.034415 208.570485 
L 331.471022 208.278909 
L 331.907628 208.951774 
L 332.344235 210.432074 
L 332.780841 210.476928 
L 333.217448 214.087963 
L 333.654055 209.624635 
L 334.090661 208.278914 
L 334.963874 207.022906 
L 335.400481 207.830335 
L 335.837088 207.157474 
L 336.273694 207.426616 
L 336.710301 207.381761 
L 337.146908 206.753755 
L 337.583514 206.596752 
L 338.456727 203.568869 
L 339.766547 181.969977 
L 340.639761 173.985347 
L 341.512974 167.234295 
L 341.94958 166.000716 
L 342.822794 162.815835 
L 343.2594 163.309264 
L 343.696007 162.748537 
L 344.132614 161.963533 
L 344.56922 158.756231 
L 345.005827 156.558202 
L 346.315647 152.476169 
L 346.752253 149.44829 
L 347.625467 148.304421 
L 348.062073 149.739861 
L 348.49868 149.964148 
L 348.935286 151.601451 
L 349.371893 148.797854 
L 349.8085 148.595997 
L 350.681713 149.89686 
L 351.554926 151.57903 
L 351.991533 148.932427 
L 352.428139 150.502441 
L 352.864746 150.704298 
L 353.301353 152.745315 
L 353.737959 152.790174 
L 354.174566 149.044576 
L 354.611172 148.640861 
L 355.047779 150.88373 
L 355.484386 154.15833 
L 355.920992 151.28745 
L 356.357599 149.358581 
L 356.794206 160.572956 
L 357.230812 215.231828 
L 357.667419 213.056233 
L 358.104025 326.725146 
L 358.540632 202.245568 
L 358.977239 269.868274 
L 359.413845 227.05178 
L 359.850452 239.970737 
L 360.287059 241.540741 
L 360.723665 233.174825 
L 361.160272 244.05277 
L 361.596878 238.490442 
L 362.033485 239.477308 
L 362.470092 244.164919 
L 362.906698 242.258466 
L 363.343305 245.17421 
L 363.779912 241.675319 
L 364.216518 244.142484 
L 364.653125 242.886472 
L 365.089731 246.362934 
L 365.526338 244.007911 
L 365.962945 245.8695 
L 366.399551 244.680781 
L 366.836158 244.075191 
L 367.272765 243.873343 
L 367.709371 246.497502 
L 368.145978 243.559337 
L 368.582584 246.452657 
L 369.019191 244.949918 
L 369.455798 246.766653 
L 369.892404 245.353638 
L 370.329011 245.443351 
L 370.765618 243.783624 
L 371.202224 245.308788 
L 371.638831 244.79292 
L 372.075437 244.591063 
L 372.512044 241.181881 
L 372.948651 244.277057 
L 373.385257 242.976186 
L 373.821864 244.43406 
L 374.25847 240.217458 
L 374.695077 243.895763 
L 375.131684 241.271604 
L 375.56829 243.043479 
L 376.004897 239.903457 
L 376.441504 240.75575 
L 376.87811 238.961446 
L 377.314717 241.024887 
L 377.751323 239.567022 
L 378.18793 240.509034 
L 378.624537 240.800596 
L 379.061143 237.458712 
L 379.49775 237.88487 
L 379.934357 235.193417 
L 380.370963 238.31101 
L 380.80757 236.157845 
L 381.244176 236.11299 
L 381.680783 234.744834 
L 382.11739 234.991555 
L 382.553996 236.47185 
L 382.990603 233.690688 
L 383.42721 237.324143 
L 383.863816 230.909517 
L 384.737029 233.89255 
L 385.173636 232.098241 
L 385.610243 236.090556 
L 386.046849 231.78424 
L 386.483456 230.460948 
L 386.920063 229.900226 
L 387.356669 228.150785 
L 387.793276 227.141489 
L 388.229882 226.872347 
L 388.666489 222.767889 
L 389.103096 223.979037 
L 389.539702 223.261317 
L 389.976309 219.650292 
L 390.412916 218.461563 
L 390.849522 219.336286 
L 391.286129 217.811137 
L 391.722735 215.029961 
L 392.159342 213.729094 
L 392.595949 213.549666 
L 393.032555 211.12736 
L 393.469162 210.74607 
L 393.905769 208.435912 
L 394.342375 210.297501 
L 394.778982 209.804058 
L 395.215588 209.759204 
L 396.088802 210.880639 
L 396.525408 210.252641 
L 396.962015 210.162928 
L 397.398621 209.220916 
L 397.835228 210.521788 
L 398.271835 209.153636 
L 398.708441 208.862056 
L 399.145048 208.413477 
L 399.581655 205.273455 
L 401.328081 179.502825 
L 401.764688 176.721654 
L 402.201294 173.020915 
L 402.637901 172.235901 
L 403.074508 166.87543 
L 403.511114 165.821279 
L 403.947721 162.412111 
L 404.820934 160.281385 
L 405.257541 158.105786 
L 405.694147 154.786332 
L 406.130754 153.261173 
L 406.567361 150.995874 
L 407.003967 150.480011 
L 407.440574 152.139743 
L 407.87718 152.543467 
L 408.313787 150.053862 
L 408.750394 151.040729 
L 409.187 153.620038 
L 410.060214 150.659443 
L 410.49682 151.623885 
L 410.933427 154.20318 
L 411.370033 152.050024 
L 411.80664 155.795623 
L 412.679853 154.046182 
L 413.11646 159.922521 
L 413.553067 155.279765 
L 413.989673 156.446059 
L 414.42628 156.490914 
L 414.862886 153.732186 
L 415.299493 160.348665 
L 415.7361 155.257335 
L 416.172706 158.980513 
L 416.609313 156.087199 
L 417.045919 155.504056 
L 417.482526 158.330082 
L 417.919133 155.683484 
L 418.355739 156.67036 
L 418.792346 155.122771 
L 419.228953 156.535777 
L 419.665559 159.047793 
L 420.102166 158.262789 
L 420.538772 159.518806 
L 420.975379 157.859079 
L 421.411986 159.182366 
L 421.848592 156.961922 
L 422.285199 158.890795 
L 422.721806 158.105791 
L 423.158412 159.339364 
L 423.595019 158.262793 
L 424.031625 158.217939 
L 424.468232 155.481622 
L 424.904839 162.030822 
L 425.341445 160.326231 
L 425.778052 159.473951 
L 426.214659 160.169237 
L 426.651265 159.855227 
L 427.087872 164.139123 
L 427.524478 158.105786 
L 427.961085 161.559814 
L 428.397692 159.384224 
L 428.834298 161.82896 
L 429.270905 161.627107 
L 429.707512 161.918683 
L 430.144118 161.088824 
L 430.580725 162.412107 
L 431.017331 162.703678 
L 431.453938 162.793392 
L 431.890545 161.828964 
L 432.327151 165.350276 
L 432.763758 163.107393 
L 433.200365 165.41756 
L 433.636971 164.946552 
L 434.073578 165.12598 
L 434.510184 165.686702 
L 434.946791 162.726112 
L 435.383398 167.682873 
L 435.820004 167.884721 
L 436.256611 168.69216 
L 436.693217 167.436147 
L 437.129824 170.194884 
L 437.566431 170.194889 
L 438.003037 169.948172 
L 438.439644 169.499608 
L 438.876251 170.351887 
L 439.312857 168.041729 
L 439.749464 170.778036 
L 440.18607 205.923887 
L 440.622677 262.758357 
L 441.059284 222.902457 
L 441.49589 265.47223 
L 441.932497 222.969741 
L 442.369104 220.928725 
L 442.80571 233.040257 
L 443.242317 215.74769 
L 443.678923 229.227365 
L 444.11553 214.244961 
L 444.552137 215.904684 
L 444.988743 215.702826 
L 445.42535 214.828108 
L 445.861957 214.222527 
L 446.298563 209.669494 
L 446.73517 210.611506 
L 447.171776 210.656361 
L 447.608383 211.777805 
L 448.04499 210.521783 
L 448.481596 209.624631 
L 448.918203 211.284358 
L 449.35481 210.611502 
L 449.791416 213.011374 
L 450.228023 212.831946 
L 450.664629 212.159085 
L 451.101236 210.297501 
L 451.537843 208.974199 
L 451.974449 205.991176 
L 452.411056 206.170612 
L 452.847663 207.718192 
L 453.284269 207.875185 
L 453.720876 207.336902 
L 454.157482 208.234059 
L 454.594089 207.942474 
L 455.030696 209.131202 
L 455.903909 206.75375 
L 456.340516 206.237897 
L 456.777122 205.295885 
L 457.213729 206.080894 
L 457.650335 205.430458 
L 458.086942 206.282751 
L 458.523549 205.520181 
L 459.396762 205.004309 
L 460.269975 201.886717 
L 460.706582 196.436523 
L 461.143188 187.061307 
L 461.579795 180.355109 
L 462.453008 173.738626 
L 462.889615 170.822891 
L 463.326221 169.454739 
L 464.199435 165.215712 
L 464.636041 165.058709 
L 465.072648 163.712983 
L 465.509255 163.735408 
L 465.945861 161.941117 
L 466.382468 161.245822 
L 467.255681 157.948788 
L 468.128894 156.266622 
L 468.565501 154.180764 
L 469.002108 153.844329 
L 469.438714 155.481618 
L 470.311927 153.709756 
L 470.748534 153.956473 
L 471.185141 150.098722 
L 471.621747 150.098722 
L 472.058354 147.833413 
L 472.494961 149.919289 
L 472.931567 150.076296 
L 473.368174 146.981129 
L 473.80478 148.259562 
L 474.241387 148.79785 
L 474.677994 147.227846 
L 475.1146 146.532551 
L 475.551207 149.919294 
L 475.987814 149.986583 
L 476.42442 149.560438 
L 476.861027 151.623885 
L 477.297633 148.77542 
L 477.73424 152.565887 
L 478.170847 154.94333 
L 478.607453 152.992041 
L 479.04406 156.558212 
L 479.480666 153.08175 
L 479.917273 155.234906 
L 480.790486 155.190051 
L 481.227093 156.378775 
L 481.6637 155.414338 
L 482.100306 156.917062 
L 482.536913 157.859074 
L 482.973519 159.204805 
L 483.410126 157.074065 
L 483.846733 159.720654 
L 484.283339 157.657217 
L 484.719946 156.423634 
L 485.156553 157.769356 
L 485.593159 160.617816 
L 486.029766 157.522639 
L 486.466372 157.253497 
L 486.902979 156.468484 
L 487.339586 157.612358 
L 487.776192 158.105791 
L 488.212799 158.352507 
L 488.649406 160.70752 
L 489.086012 160.214092 
L 489.522619 165.058696 
L 489.959225 163.712974 
L 490.395832 167.368872 
L 490.832439 168.243591 
L 491.269045 168.221152 
L 491.705652 168.804303 
L 492.142259 168.714589 
L 492.578865 171.024753 
L 493.015472 169.589317 
L 493.452078 178.740246 
L 493.888685 176.990805 
L 494.325292 180.758838 
L 494.761898 178.964528 
L 495.198505 184.190426 
L 495.635112 182.216703 
L 496.071718 184.796003 
L 496.508325 181.409264 
L 496.944931 183.943714 
L 497.381538 182.418565 
L 497.818145 183.876421 
L 498.254751 182.867134 
L 498.691358 187.17345 
L 499.127964 185.962302 
L 499.564571 187.465026 
L 500.001178 185.154858 
L 500.437784 188.115462 
L 500.874391 184.975435 
L 501.310998 188.115457 
L 501.747604 188.003323 
L 502.184211 191.591919 
L 502.620817 189.752764 
L 503.057424 190.649912 
L 503.494031 188.025743 
L 503.930637 189.573332 
L 504.367244 192.847927 
L 504.803851 191.165775 
L 505.240457 192.287205 
L 505.677064 189.663046 
L 506.11367 194.39551 
L 506.550277 191.816201 
L 506.986884 195.13566 
L 507.42349 193.251641 
L 508.296704 194.933798 
L 508.73331 193.296501 
L 509.169917 195.516941 
L 509.606523 192.130216 
L 510.04313 196.23467 
L 510.479737 193.004934 
L 510.916343 196.907522 
L 511.35295 195.965524 
L 511.789557 196.055238 
L 512.226163 199.643833 
L 512.66277 197.423394 
L 513.099376 198.881263 
L 513.535983 198.499969 
L 513.97259 198.858829 
L 514.409196 201.707294 
L 514.845803 197.714969 
L 515.28241 200.159701 
L 516.155623 199.688693 
L 516.592229 203.927734 
L 517.028836 203.882874 
L 517.465443 203.187579 
L 517.902049 204.667883 
L 518.338656 204.645454 
L 518.775263 202.290432 
L 519.211869 207.11261 
L 519.648476 205.116457 
L 520.521689 207.673332 
L 520.958296 207.42662 
L 521.394902 204.802452 
L 521.831509 206.148178 
L 522.268115 209.759208 
L 522.704722 207.875185 
L 523.141329 208.682628 
L 523.577935 239.903457 
L 524.014542 227.926493 
L 524.451149 177.730955 
L 524.887755 163.847551 
L 525.324362 176.811368 
L 525.760968 165.821284 
L 526.197575 169.095879 
L 526.634182 173.469489 
L 527.070788 162.053251 
L 527.507395 167.795007 
L 528.380608 162.053242 
L 528.817215 160.819673 
L 529.253821 161.043965 
L 529.690428 158.845936 
L 530.127035 158.913229 
L 530.563641 160.079523 
L 531.000248 156.984347 
L 531.436855 155.705905 
L 531.873461 160.505668 
L 532.310068 155.302195 
L 532.746674 155.907776 
L 533.183281 157.365636 
L 533.619888 155.369479 
L 534.056494 158.823502 
L 534.929708 154.763902 
L 535.366314 156.558193 
L 535.802921 153.552744 
L 536.239527 155.818053 
L 536.676134 156.087213 
L 537.112741 153.036895 
L 537.549347 155.526486 
L 537.985954 153.238753 
L 538.422561 153.642467 
L 538.859167 156.244202 
L 539.295774 154.270469 
L 539.73238 155.638625 
L 540.168987 152.857463 
L 540.605594 156.109628 
L 541.0422 154.248044 
L 541.478807 157.163784 
L 541.915413 155.616205 
L 542.35202 156.872208 
L 542.788627 156.535777 
L 543.225233 155.324624 
L 543.66184 158.935654 
L 544.098447 154.53962 
L 544.535053 157.657212 
L 544.97166 155.459202 
L 545.408266 157.074065 
L 545.844873 155.122767 
L 546.28148 159.518797 
L 546.718086 157.141359 
L 547.154693 158.352512 
L 547.5913 158.17307 
L 548.027906 158.262789 
L 548.464513 157.477789 
L 548.901119 159.070227 
L 549.337726 159.900091 
L 549.774333 158.980509 
L 550.210939 161.043951 
L 550.647546 160.505658 
L 551.084153 162.54668 
L 551.520759 159.855236 
L 551.957366 161.223392 
L 552.393972 162.053247 
L 552.830579 161.694391 
L 553.267186 161.492534 
L 553.703792 163.578405 
L 554.140399 160.483229 
L 554.577006 162.210249 
L 555.013612 163.084972 
L 555.450219 167.122147 
L 555.886825 168.221156 
L 556.323432 167.705298 
L 556.760039 172.191051 
L 557.633252 174.433925 
L 558.069859 171.989194 
L 558.506465 178.964528 
L 558.943072 177.529088 
L 559.379678 179.502825 
L 559.816285 180.422398 
L 560.252892 183.58485 
L 560.689498 185.513728 
L 561.126105 189.214472 
L 561.562711 184.616571 
L 561.999318 190.291056 
L 562.435925 188.407038 
L 562.872531 191.54706 
L 563.309138 187.308023 
L 564.182351 191.053631 
L 564.618958 188.900475 
L 565.055564 187.801461 
L 565.492171 190.223758 
L 565.928778 191.120911 
L 566.365384 189.932187 
L 566.801991 191.502205 
L 567.238598 189.640611 
L 567.675204 194.08151 
L 568.111811 192.040493 
L 568.548417 193.834788 
L 568.985024 192.668499 
L 569.421631 194.03665 
L 569.858237 193.969362 
L 570.294844 194.530093 
L 570.731451 198.455119 
L 571.168057 195.180519 
L 571.604664 198.589678 
L 572.04127 199.957848 
L 572.477877 200.249419 
L 572.914484 202.828719 
L 573.35109 204.129591 
L 573.787697 206.372461 
L 574.224304 209.534917 
L 574.66091 207.426616 
L 575.534123 214.222527 
L 575.97073 216.016832 
L 576.407337 216.353262 
L 576.843943 214.334675 
L 577.28055 219.224138 
L 577.717157 217.564406 
L 578.153763 218.01299 
L 578.59037 217.698984 
L 579.026976 215.254257 
L 579.463583 213.953385 
L 579.90019 215.545824 
L 580.336796 215.725256 
L 580.773403 217.295265 
L 581.21001 218.147563 
L 581.646616 220.973584 
L 582.083223 220.749301 
L 582.519829 218.865283 
L 582.956436 218.237281 
L 583.393043 218.439138 
L 583.829649 218.506423 
L 584.266256 217.452268 
L 584.702862 218.349415 
L 585.576076 218.057849 
L 586.012682 216.734547 
L 586.449289 217.407408 
L 586.885896 217.407408 
L 587.322502 219.80729 
L 587.759109 220.457721 
L 588.195715 222.431449 
L 588.632322 227.836784 
L 589.505535 244.097634 
L 590.378749 252.149554 
L 591.688568 259.954761 
L 592.561782 262.825632 
L 593.434995 267.311385 
L 593.871602 268.051544 
L 594.308208 272.313001 
L 595.181421 278.637913 
L 595.618028 278.593049 
L 596.054635 277.987473 
L 596.491241 276.574467 
L 596.927848 276.70904 
L 597.364455 275.610025 
L 597.801061 275.161447 
L 598.674274 280.275211 
L 599.110881 280.409784 
L 599.547488 275.161451 
L 599.984094 276.170743 
L 600.420701 275.31845 
L 600.857308 280.925642 
L 601.293914 282.226504 
L 601.730521 281.239647 
L 602.167127 278.413621 
L 602.603734 276.866038 
L 603.040341 276.529612 
L 603.476947 280.140633 
L 604.35016 275.206311 
L 605.223374 277.337037 
L 605.65998 280.6565 
L 606.096587 278.301478 
L 606.533194 276.843604 
L 606.9698 231.896393 
L 607.406407 242.348184 
L 607.843013 123.991656 
L 608.27962 204.309028 
L 608.716227 163.757828 
L 609.152833 209.893781 
L 609.58944 173.918063 
L 610.026047 199.800845 
L 610.462653 188.743468 
L 610.89926 191.636783 
L 611.335866 192.735783 
L 611.772473 184.639 
L 612.20908 190.448054 
L 612.645686 183.360567 
L 613.082293 187.061311 
L 613.955506 184.975435 
L 614.392113 185.222156 
L 614.828719 186.074445 
L 615.265326 182.216703 
L 615.701933 185.267016 
L 616.138539 182.41856 
L 616.575146 185.872588 
L 617.011753 183.024132 
L 617.448359 182.732566 
L 617.884966 178.605677 
L 618.321572 182.687706 
L 618.758179 184.257711 
L 619.194786 183.921285 
L 619.631392 182.126984 
L 620.067999 185.289441 
L 620.504606 182.777411 
L 620.941212 184.30257 
L 621.377819 183.89886 
L 621.814425 187.599599 
L 622.251032 184.930571 
L 622.687639 186.702442 
L 623.124245 184.078287 
L 623.560852 185.199722 
L 623.997459 185.895017 
L 624.434065 187.48746 
L 624.870672 186.209018 
L 625.307278 189.752764 
L 626.180492 188.721038 
L 626.617098 186.45573 
L 627.053705 185.693151 
L 627.490311 186.209023 
L 627.926918 184.369859 
L 628.363525 183.966144 
L 628.800131 181.812979 
L 629.236738 180.983125 
L 629.673345 181.76812 
L 630.109951 183.113846 
L 630.546558 182.149414 
L 630.983164 183.091417 
L 631.419771 185.67073 
L 631.856378 182.687697 
L 632.292984 184.840867 
L 632.729591 181.454124 
L 633.166198 183.495145 
L 633.602804 182.777416 
L 634.039411 181.095268 
L 634.476017 182.844709 
L 634.912624 180.24297 
L 635.349231 182.0597 
L 635.785837 180.467262 
L 636.222444 182.171834 
L 636.659051 186.029586 
L 637.095657 184.773573 
L 637.532264 186.231448 
L 637.96887 188.451892 
L 638.405477 186.702447 
L 639.27869 191.434921 
L 639.715297 189.797614 
L 640.151904 188.810743 
L 641.025117 194.731941 
L 641.461723 191.928345 
L 641.89833 194.754366 
L 642.334937 194.39551 
L 642.771543 197.042099 
L 643.20815 196.862676 
L 643.644757 199.77842 
L 644.081363 195.113226 
L 644.51797 192.578785 
L 644.954576 193.31893 
L 645.391183 190.829335 
L 645.82779 189.999476 
L 646.264396 188.115466 
L 646.701003 188.429467 
L 647.137609 188.160312 
L 647.574216 188.115462 
L 648.447429 188.653754 
L 648.884036 190.313477 
L 649.320643 190.694776 
L 649.757249 190.066765 
L 651.940282 193.206782 
L 653.686709 193.36379 
L 654.123315 193.498349 
L 654.996529 194.193658 
L 655.433135 193.72265 
L 655.869742 194.642227 
L 656.306349 194.911373 
L 657.179562 195.20294 
L 657.179562 195.20294 
" clip-path="url(#pe717bdadf8)" style="fill: none; stroke: #0c537e; stroke-width: 2; stroke-linecap: square"/>
   </g>
   <g id="patch_3">
    <path d="M 103.562365 508.32 
L 103.562365 64.8 
" style="fill: none; stroke: #002d4c; stroke-width: 1.5; stroke-linejoin: miter; stroke-linecap: square"/>
   </g>
   <g id="patch_4">
    <path d="M 27.44 214.289816 
L 697.04 214.289816 
" style="fill: none; stroke: #002d4c; stroke-width: 1.5; stroke-linejoin: miter; stroke-linecap: square"/>
   </g>
   <g id="patch_5">
    <path d="M 674.682029 214.289816 
Q 684.860746 214.289816 693.362413 214.289816 
" style="fill: none; stroke: #002d4c; stroke-width: 1.5; stroke-linecap: round"/>
    <path d="M 683.362413 209.289816 
L 693.362413 214.289816 
L 683.362413 219.289816 
" style="fill: none; stroke: #002d4c; stroke-width: 1.5; stroke-linecap: round"/>
   </g>
   <g id="text_12">
    <!-- $t$ in s -->
    <g style="fill: #002d4c" transform="translate(655.795519 239.823818) scale(0.16 -0.16)">
     <defs>
      <path id="DejaVuSans-Oblique-74" d="M 2706 3500 
L 2619 3053 
L 1472 3053 
L 1100 1153 
Q 1081 1047 1072 975 
Q 1063 903 1063 863 
Q 1063 663 1183 572 
Q 1303 481 1569 481 
L 2150 481 
L 2053 0 
L 1503 0 
Q 991 0 739 200 
Q 488 400 488 806 
Q 488 878 497 964 
Q 506 1050 525 1153 
L 897 3053 
L 409 3053 
L 500 3500 
L 978 3500 
L 1172 4494 
L 1747 4494 
L 1556 3500 
L 2706 3500 
z
" transform="scale(0.015625)"/>
      <path id="DejaVuSans-20" transform="scale(0.015625)"/>
      <path id="DejaVuSans-69" d="M 603 3500 
L 1178 3500 
L 1178 0 
L 603 0 
L 603 3500 
z
M 603 4863 
L 1178 4863 
L 1178 4134 
L 603 4134 
L 603 4863 
z
" transform="scale(0.015625)"/>
      <path id="DejaVuSans-6e" d="M 3513 2113 
L 3513 0 
L 2938 0 
L 2938 2094 
Q 2938 2591 2744 2837 
Q 2550 3084 2163 3084 
Q 1697 3084 1428 2787 
Q 1159 2491 1159 1978 
L 1159 0 
L 581 0 
L 581 3500 
L 1159 3500 
L 1159 2956 
Q 1366 3272 1645 3428 
Q 1925 3584 2291 3584 
Q 2894 3584 3203 3211 
Q 3513 2838 3513 2113 
z
" transform="scale(0.015625)"/>
      <path id="DejaVuSans-73" d="M 2834 3397 
L 2834 2853 
Q 2591 2978 2328 3040 
Q 2066 3103 1784 3103 
Q 1356 3103 1142 2972 
Q 928 2841 928 2578 
Q 928 2378 1081 2264 
Q 1234 2150 1697 2047 
L 1894 2003 
Q 2506 1872 2764 1633 
Q 3022 1394 3022 966 
Q 3022 478 2636 193 
Q 2250 -91 1575 -91 
Q 1294 -91 989 -36 
Q 684 19 347 128 
L 347 722 
Q 666 556 975 473 
Q 1284 391 1588 391 
Q 1994 391 2212 530 
Q 2431 669 2431 922 
Q 2431 1156 2273 1281 
Q 2116 1406 1581 1522 
L 1381 1569 
Q 847 1681 609 1914 
Q 372 2147 372 2553 
Q 372 3047 722 3315 
Q 1072 3584 1716 3584 
Q 2034 3584 2315 3537 
Q 2597 3491 2834 3397 
z
" transform="scale(0.015625)"/>
     </defs>
     <use xlink:href="#DejaVuSans-Oblique-74" transform="translate(0 0.015625)"/>
     <use xlink:href="#DejaVuSans-20" transform="translate(39.208984 0.015625)"/>
     <use xlink:href="#DejaVuSans-69" transform="translate(70.996094 0.015625)"/>
     <use xlink:href="#DejaVuSans-6e" transform="translate(98.779297 0.015625)"/>
     <use xlink:href="#DejaVuSans-20" transform="translate(162.158203 0.015625)"/>
     <use xlink:href="#DejaVuSans-73" transform="translate(193.945312 0.015625)"/>
    </g>
   </g>
   <g id="patch_6">
    <path d="M 103.562365 80.192923 
Q 103.562365 73.497978 103.562365 68.480085 
" style="fill: none; stroke: #002d4c; stroke-width: 1.5; stroke-linecap: round"/>
    <path d="M 98.562365 78.480085 
L 103.562365 68.480085 
L 108.562365 78.480085 
" style="fill: none; stroke: #002d4c; stroke-width: 1.5; stroke-linecap: round"/>
   </g>
   <g id="text_13">
    <!-- $I$ in A -->
    <g style="fill: #002d4c" transform="translate(7.2 117.377384) scale(0.16 -0.16)">
     <defs>
      <path id="DejaVuSans-Oblique-49" d="M 1081 4666 
L 1716 4666 
L 806 0 
L 172 0 
L 1081 4666 
z
" transform="scale(0.015625)"/>
      <path id="DejaVuSans-41" d="M 2188 4044 
L 1331 1722 
L 3047 1722 
L 2188 4044 
z
M 1831 4666 
L 2547 4666 
L 4325 0 
L 3669 0 
L 3244 1197 
L 1141 1197 
L 716 0 
L 50 0 
L 1831 4666 
z
" transform="scale(0.015625)"/>
     </defs>
     <use xlink:href="#DejaVuSans-Oblique-49" transform="translate(0 0.015625)"/>
     <use xlink:href="#DejaVuSans-20" transform="translate(29.492188 0.015625)"/>
     <use xlink:href="#DejaVuSans-69" transform="translate(61.279297 0.015625)"/>
     <use xlink:href="#DejaVuSans-6e" transform="translate(89.0625 0.015625)"/>
     <use xlink:href="#DejaVuSans-20" transform="translate(152.441406 0.015625)"/>
     <use xlink:href="#DejaVuSans-41" transform="translate(184.228516 0.015625)"/>
    </g>
   </g>
  </g>
  <g id="text_14">
   <!-- Stahl Gear Random Forest: -->
   <g style="fill: #002d4c" transform="translate(214.503594 20.877187) scale(0.18 -0.18)">
    <defs>
     <path id="DejaVuSans-Bold-53" d="M 3834 4519 
L 3834 3531 
Q 3450 3703 3084 3790 
Q 2719 3878 2394 3878 
Q 1963 3878 1756 3759 
Q 1550 3641 1550 3391 
Q 1550 3203 1689 3098 
Q 1828 2994 2194 2919 
L 2706 2816 
Q 3484 2659 3812 2340 
Q 4141 2022 4141 1434 
Q 4141 663 3683 286 
Q 3225 -91 2284 -91 
Q 1841 -91 1394 -6 
Q 947 78 500 244 
L 500 1259 
Q 947 1022 1364 901 
Q 1781 781 2169 781 
Q 2563 781 2772 912 
Q 2981 1044 2981 1288 
Q 2981 1506 2839 1625 
Q 2697 1744 2272 1838 
L 1806 1941 
Q 1106 2091 782 2419 
Q 459 2747 459 3303 
Q 459 4000 909 4375 
Q 1359 4750 2203 4750 
Q 2588 4750 2994 4692 
Q 3400 4634 3834 4519 
z
" transform="scale(0.015625)"/>
     <path id="DejaVuSans-Bold-74" d="M 1759 4494 
L 1759 3500 
L 2913 3500 
L 2913 2700 
L 1759 2700 
L 1759 1216 
Q 1759 972 1856 886 
Q 1953 800 2241 800 
L 2816 800 
L 2816 0 
L 1856 0 
Q 1194 0 917 276 
Q 641 553 641 1216 
L 641 2700 
L 84 2700 
L 84 3500 
L 641 3500 
L 641 4494 
L 1759 4494 
z
" transform="scale(0.015625)"/>
     <path id="DejaVuSans-Bold-61" d="M 2106 1575 
Q 1756 1575 1579 1456 
Q 1403 1338 1403 1106 
Q 1403 894 1545 773 
Q 1688 653 1941 653 
Q 2256 653 2472 879 
Q 2688 1106 2688 1447 
L 2688 1575 
L 2106 1575 
z
M 3816 1997 
L 3816 0 
L 2688 0 
L 2688 519 
Q 2463 200 2181 54 
Q 1900 -91 1497 -91 
Q 953 -91 614 226 
Q 275 544 275 1050 
Q 275 1666 698 1953 
Q 1122 2241 2028 2241 
L 2688 2241 
L 2688 2328 
Q 2688 2594 2478 2717 
Q 2269 2841 1825 2841 
Q 1466 2841 1156 2769 
Q 847 2697 581 2553 
L 581 3406 
Q 941 3494 1303 3539 
Q 1666 3584 2028 3584 
Q 2975 3584 3395 3211 
Q 3816 2838 3816 1997 
z
" transform="scale(0.015625)"/>
     <path id="DejaVuSans-Bold-68" d="M 4056 2131 
L 4056 0 
L 2931 0 
L 2931 347 
L 2931 1625 
Q 2931 2084 2911 2256 
Q 2891 2428 2841 2509 
Q 2775 2619 2662 2680 
Q 2550 2741 2406 2741 
Q 2056 2741 1856 2470 
Q 1656 2200 1656 1722 
L 1656 0 
L 538 0 
L 538 4863 
L 1656 4863 
L 1656 2988 
Q 1909 3294 2193 3439 
Q 2478 3584 2822 3584 
Q 3428 3584 3742 3212 
Q 4056 2841 4056 2131 
z
" transform="scale(0.015625)"/>
     <path id="DejaVuSans-Bold-6c" d="M 538 4863 
L 1656 4863 
L 1656 0 
L 538 0 
L 538 4863 
z
" transform="scale(0.015625)"/>
     <path id="DejaVuSans-Bold-20" transform="scale(0.015625)"/>
     <path id="DejaVuSans-Bold-47" d="M 4781 347 
Q 4331 128 3847 18 
Q 3363 -91 2847 -91 
Q 1681 -91 1000 561 
Q 319 1213 319 2328 
Q 319 3456 1012 4103 
Q 1706 4750 2913 4750 
Q 3378 4750 3804 4662 
Q 4231 4575 4609 4403 
L 4609 3438 
Q 4219 3659 3833 3768 
Q 3447 3878 3059 3878 
Q 2341 3878 1952 3476 
Q 1563 3075 1563 2328 
Q 1563 1588 1938 1184 
Q 2313 781 3003 781 
Q 3191 781 3352 804 
Q 3513 828 3641 878 
L 3641 1784 
L 2906 1784 
L 2906 2591 
L 4781 2591 
L 4781 347 
z
" transform="scale(0.015625)"/>
     <path id="DejaVuSans-Bold-65" d="M 4031 1759 
L 4031 1441 
L 1416 1441 
Q 1456 1047 1700 850 
Q 1944 653 2381 653 
Q 2734 653 3104 758 
Q 3475 863 3866 1075 
L 3866 213 
Q 3469 63 3072 -14 
Q 2675 -91 2278 -91 
Q 1328 -91 801 392 
Q 275 875 275 1747 
Q 275 2603 792 3093 
Q 1309 3584 2216 3584 
Q 3041 3584 3536 3087 
Q 4031 2591 4031 1759 
z
M 2881 2131 
Q 2881 2450 2695 2645 
Q 2509 2841 2209 2841 
Q 1884 2841 1681 2658 
Q 1478 2475 1428 2131 
L 2881 2131 
z
" transform="scale(0.015625)"/>
     <path id="DejaVuSans-Bold-72" d="M 3138 2547 
Q 2991 2616 2845 2648 
Q 2700 2681 2553 2681 
Q 2122 2681 1889 2404 
Q 1656 2128 1656 1613 
L 1656 0 
L 538 0 
L 538 3500 
L 1656 3500 
L 1656 2925 
Q 1872 3269 2151 3426 
Q 2431 3584 2822 3584 
Q 2878 3584 2943 3579 
Q 3009 3575 3134 3559 
L 3138 2547 
z
" transform="scale(0.015625)"/>
     <path id="DejaVuSans-Bold-52" d="M 2297 2597 
Q 2675 2597 2839 2737 
Q 3003 2878 3003 3200 
Q 3003 3519 2839 3656 
Q 2675 3794 2297 3794 
L 1791 3794 
L 1791 2597 
L 2297 2597 
z
M 1791 1766 
L 1791 0 
L 588 0 
L 588 4666 
L 2425 4666 
Q 3347 4666 3776 4356 
Q 4206 4047 4206 3378 
Q 4206 2916 3982 2619 
Q 3759 2322 3309 2181 
Q 3556 2125 3751 1926 
Q 3947 1728 4147 1325 
L 4800 0 
L 3519 0 
L 2950 1159 
Q 2778 1509 2601 1637 
Q 2425 1766 2131 1766 
L 1791 1766 
z
" transform="scale(0.015625)"/>
     <path id="DejaVuSans-Bold-6e" d="M 4056 2131 
L 4056 0 
L 2931 0 
L 2931 347 
L 2931 1631 
Q 2931 2084 2911 2256 
Q 2891 2428 2841 2509 
Q 2775 2619 2662 2680 
Q 2550 2741 2406 2741 
Q 2056 2741 1856 2470 
Q 1656 2200 1656 1722 
L 1656 0 
L 538 0 
L 538 3500 
L 1656 3500 
L 1656 2988 
Q 1909 3294 2193 3439 
Q 2478 3584 2822 3584 
Q 3428 3584 3742 3212 
Q 4056 2841 4056 2131 
z
" transform="scale(0.015625)"/>
     <path id="DejaVuSans-Bold-64" d="M 2919 2988 
L 2919 4863 
L 4044 4863 
L 4044 0 
L 2919 0 
L 2919 506 
Q 2688 197 2409 53 
Q 2131 -91 1766 -91 
Q 1119 -91 703 423 
Q 288 938 288 1747 
Q 288 2556 703 3070 
Q 1119 3584 1766 3584 
Q 2128 3584 2408 3439 
Q 2688 3294 2919 2988 
z
M 2181 722 
Q 2541 722 2730 984 
Q 2919 1247 2919 1747 
Q 2919 2247 2730 2509 
Q 2541 2772 2181 2772 
Q 1825 2772 1636 2509 
Q 1447 2247 1447 1747 
Q 1447 1247 1636 984 
Q 1825 722 2181 722 
z
" transform="scale(0.015625)"/>
     <path id="DejaVuSans-Bold-6f" d="M 2203 2784 
Q 1831 2784 1636 2517 
Q 1441 2250 1441 1747 
Q 1441 1244 1636 976 
Q 1831 709 2203 709 
Q 2569 709 2762 976 
Q 2956 1244 2956 1747 
Q 2956 2250 2762 2517 
Q 2569 2784 2203 2784 
z
M 2203 3584 
Q 3106 3584 3614 3096 
Q 4122 2609 4122 1747 
Q 4122 884 3614 396 
Q 3106 -91 2203 -91 
Q 1297 -91 786 396 
Q 275 884 275 1747 
Q 275 2609 786 3096 
Q 1297 3584 2203 3584 
z
" transform="scale(0.015625)"/>
     <path id="DejaVuSans-Bold-6d" d="M 3781 2919 
Q 3994 3244 4286 3414 
Q 4578 3584 4928 3584 
Q 5531 3584 5847 3212 
Q 6163 2841 6163 2131 
L 6163 0 
L 5038 0 
L 5038 1825 
Q 5041 1866 5042 1909 
Q 5044 1953 5044 2034 
Q 5044 2406 4934 2573 
Q 4825 2741 4581 2741 
Q 4263 2741 4089 2478 
Q 3916 2216 3909 1719 
L 3909 0 
L 2784 0 
L 2784 1825 
Q 2784 2406 2684 2573 
Q 2584 2741 2328 2741 
Q 2006 2741 1831 2477 
Q 1656 2213 1656 1722 
L 1656 0 
L 531 0 
L 531 3500 
L 1656 3500 
L 1656 2988 
Q 1863 3284 2130 3434 
Q 2397 3584 2719 3584 
Q 3081 3584 3359 3409 
Q 3638 3234 3781 2919 
z
" transform="scale(0.015625)"/>
     <path id="DejaVuSans-Bold-46" d="M 588 4666 
L 3834 4666 
L 3834 3756 
L 1791 3756 
L 1791 2888 
L 3713 2888 
L 3713 1978 
L 1791 1978 
L 1791 0 
L 588 0 
L 588 4666 
z
" transform="scale(0.015625)"/>
     <path id="DejaVuSans-Bold-73" d="M 3272 3391 
L 3272 2541 
Q 2913 2691 2578 2766 
Q 2244 2841 1947 2841 
Q 1628 2841 1473 2761 
Q 1319 2681 1319 2516 
Q 1319 2381 1436 2309 
Q 1553 2238 1856 2203 
L 2053 2175 
Q 2913 2066 3209 1816 
Q 3506 1566 3506 1031 
Q 3506 472 3093 190 
Q 2681 -91 1863 -91 
Q 1516 -91 1145 -36 
Q 775 19 384 128 
L 384 978 
Q 719 816 1070 734 
Q 1422 653 1784 653 
Q 2113 653 2278 743 
Q 2444 834 2444 1013 
Q 2444 1163 2330 1236 
Q 2216 1309 1875 1350 
L 1678 1375 
Q 931 1469 631 1722 
Q 331 1975 331 2491 
Q 331 3047 712 3315 
Q 1094 3584 1881 3584 
Q 2191 3584 2531 3537 
Q 2872 3491 3272 3391 
z
" transform="scale(0.015625)"/>
     <path id="DejaVuSans-Bold-3a" d="M 716 3500 
L 1844 3500 
L 1844 2291 
L 716 2291 
L 716 3500 
z
M 716 1209 
L 1844 1209 
L 1844 0 
L 716 0 
L 716 1209 
z
" transform="scale(0.015625)"/>
    </defs>
    <use xlink:href="#DejaVuSans-Bold-53"/>
    <use xlink:href="#DejaVuSans-Bold-74" transform="translate(72.021484 0)"/>
    <use xlink:href="#DejaVuSans-Bold-61" transform="translate(119.824219 0)"/>
    <use xlink:href="#DejaVuSans-Bold-68" transform="translate(187.304688 0)"/>
    <use xlink:href="#DejaVuSans-Bold-6c" transform="translate(258.496094 0)"/>
    <use xlink:href="#DejaVuSans-Bold-20" transform="translate(292.773438 0)"/>
    <use xlink:href="#DejaVuSans-Bold-47" transform="translate(327.587891 0)"/>
    <use xlink:href="#DejaVuSans-Bold-65" transform="translate(409.667969 0)"/>
    <use xlink:href="#DejaVuSans-Bold-61" transform="translate(477.490234 0)"/>
    <use xlink:href="#DejaVuSans-Bold-72" transform="translate(544.970703 0)"/>
    <use xlink:href="#DejaVuSans-Bold-20" transform="translate(594.287109 0)"/>
    <use xlink:href="#DejaVuSans-Bold-52" transform="translate(629.101562 0)"/>
    <use xlink:href="#DejaVuSans-Bold-61" transform="translate(706.103516 0)"/>
    <use xlink:href="#DejaVuSans-Bold-6e" transform="translate(773.583984 0)"/>
    <use xlink:href="#DejaVuSans-Bold-64" transform="translate(844.775391 0)"/>
    <use xlink:href="#DejaVuSans-Bold-6f" transform="translate(916.357422 0)"/>
    <use xlink:href="#DejaVuSans-Bold-6d" transform="translate(985.058594 0)"/>
    <use xlink:href="#DejaVuSans-Bold-20" transform="translate(1089.257812 0)"/>
    <use xlink:href="#DejaVuSans-Bold-46" transform="translate(1124.072266 0)"/>
    <use xlink:href="#DejaVuSans-Bold-6f" transform="translate(1188.382812 0)"/>
    <use xlink:href="#DejaVuSans-Bold-72" transform="translate(1257.083984 0)"/>
    <use xlink:href="#DejaVuSans-Bold-65" transform="translate(1306.400391 0)"/>
    <use xlink:href="#DejaVuSans-Bold-73" transform="translate(1374.222656 0)"/>
    <use xlink:href="#DejaVuSans-Bold-74" transform="translate(1433.744141 0)"/>
    <use xlink:href="#DejaVuSans-Bold-3a" transform="translate(1481.546875 0)"/>
   </g>
   <!-- Stromverlauf der Vorschubachse in x-Richtung -->
   <g style="fill: #002d4c" transform="translate(114.586719 41.03325) scale(0.18 -0.18)">
    <defs>
     <path id="DejaVuSans-Bold-76" d="M 97 3500 
L 1216 3500 
L 2088 1081 
L 2956 3500 
L 4078 3500 
L 2700 0 
L 1472 0 
L 97 3500 
z
" transform="scale(0.015625)"/>
     <path id="DejaVuSans-Bold-75" d="M 500 1363 
L 500 3500 
L 1625 3500 
L 1625 3150 
Q 1625 2866 1622 2436 
Q 1619 2006 1619 1863 
Q 1619 1441 1641 1255 
Q 1663 1069 1716 984 
Q 1784 875 1895 815 
Q 2006 756 2150 756 
Q 2500 756 2700 1025 
Q 2900 1294 2900 1772 
L 2900 3500 
L 4019 3500 
L 4019 0 
L 2900 0 
L 2900 506 
Q 2647 200 2364 54 
Q 2081 -91 1741 -91 
Q 1134 -91 817 281 
Q 500 653 500 1363 
z
" transform="scale(0.015625)"/>
     <path id="DejaVuSans-Bold-66" d="M 2841 4863 
L 2841 4128 
L 2222 4128 
Q 1984 4128 1890 4042 
Q 1797 3956 1797 3744 
L 1797 3500 
L 2753 3500 
L 2753 2700 
L 1797 2700 
L 1797 0 
L 678 0 
L 678 2700 
L 122 2700 
L 122 3500 
L 678 3500 
L 678 3744 
Q 678 4316 997 4589 
Q 1316 4863 1984 4863 
L 2841 4863 
z
" transform="scale(0.015625)"/>
     <path id="DejaVuSans-Bold-56" d="M 31 4666 
L 1241 4666 
L 2478 1222 
L 3713 4666 
L 4922 4666 
L 3194 0 
L 1759 0 
L 31 4666 
z
" transform="scale(0.015625)"/>
     <path id="DejaVuSans-Bold-63" d="M 3366 3391 
L 3366 2478 
Q 3138 2634 2908 2709 
Q 2678 2784 2431 2784 
Q 1963 2784 1702 2511 
Q 1441 2238 1441 1747 
Q 1441 1256 1702 982 
Q 1963 709 2431 709 
Q 2694 709 2930 787 
Q 3166 866 3366 1019 
L 3366 103 
Q 3103 6 2833 -42 
Q 2563 -91 2291 -91 
Q 1344 -91 809 395 
Q 275 881 275 1747 
Q 275 2613 809 3098 
Q 1344 3584 2291 3584 
Q 2566 3584 2833 3536 
Q 3100 3488 3366 3391 
z
" transform="scale(0.015625)"/>
     <path id="DejaVuSans-Bold-62" d="M 2400 722 
Q 2759 722 2948 984 
Q 3138 1247 3138 1747 
Q 3138 2247 2948 2509 
Q 2759 2772 2400 2772 
Q 2041 2772 1848 2508 
Q 1656 2244 1656 1747 
Q 1656 1250 1848 986 
Q 2041 722 2400 722 
z
M 1656 2988 
Q 1888 3294 2169 3439 
Q 2450 3584 2816 3584 
Q 3463 3584 3878 3070 
Q 4294 2556 4294 1747 
Q 4294 938 3878 423 
Q 3463 -91 2816 -91 
Q 2450 -91 2169 54 
Q 1888 200 1656 506 
L 1656 0 
L 538 0 
L 538 4863 
L 1656 4863 
L 1656 2988 
z
" transform="scale(0.015625)"/>
     <path id="DejaVuSans-Bold-69" d="M 538 3500 
L 1656 3500 
L 1656 0 
L 538 0 
L 538 3500 
z
M 538 4863 
L 1656 4863 
L 1656 3950 
L 538 3950 
L 538 4863 
z
" transform="scale(0.015625)"/>
     <path id="DejaVuSans-Bold-78" d="M 1422 1791 
L 159 3500 
L 1344 3500 
L 2059 2463 
L 2784 3500 
L 3969 3500 
L 2706 1797 
L 4031 0 
L 2847 0 
L 2059 1106 
L 1281 0 
L 97 0 
L 1422 1791 
z
" transform="scale(0.015625)"/>
     <path id="DejaVuSans-Bold-2d" d="M 347 2297 
L 2309 2297 
L 2309 1388 
L 347 1388 
L 347 2297 
z
" transform="scale(0.015625)"/>
     <path id="DejaVuSans-Bold-67" d="M 2919 594 
Q 2688 288 2409 144 
Q 2131 0 1766 0 
Q 1125 0 706 504 
Q 288 1009 288 1791 
Q 288 2575 706 3076 
Q 1125 3578 1766 3578 
Q 2131 3578 2409 3434 
Q 2688 3291 2919 2981 
L 2919 3500 
L 4044 3500 
L 4044 353 
Q 4044 -491 3511 -936 
Q 2978 -1381 1966 -1381 
Q 1638 -1381 1331 -1331 
Q 1025 -1281 716 -1178 
L 716 -306 
Q 1009 -475 1290 -558 
Q 1572 -641 1856 -641 
Q 2406 -641 2662 -400 
Q 2919 -159 2919 353 
L 2919 594 
z
M 2181 2772 
Q 1834 2772 1640 2515 
Q 1447 2259 1447 1791 
Q 1447 1309 1634 1061 
Q 1822 813 2181 813 
Q 2531 813 2725 1069 
Q 2919 1325 2919 1791 
Q 2919 2259 2725 2515 
Q 2531 2772 2181 2772 
z
" transform="scale(0.015625)"/>
    </defs>
    <use xlink:href="#DejaVuSans-Bold-53"/>
    <use xlink:href="#DejaVuSans-Bold-74" transform="translate(72.021484 0)"/>
    <use xlink:href="#DejaVuSans-Bold-72" transform="translate(119.824219 0)"/>
    <use xlink:href="#DejaVuSans-Bold-6f" transform="translate(169.140625 0)"/>
    <use xlink:href="#DejaVuSans-Bold-6d" transform="translate(237.841797 0)"/>
    <use xlink:href="#DejaVuSans-Bold-76" transform="translate(342.041016 0)"/>
    <use xlink:href="#DejaVuSans-Bold-65" transform="translate(407.226562 0)"/>
    <use xlink:href="#DejaVuSans-Bold-72" transform="translate(475.048828 0)"/>
    <use xlink:href="#DejaVuSans-Bold-6c" transform="translate(524.365234 0)"/>
    <use xlink:href="#DejaVuSans-Bold-61" transform="translate(558.642578 0)"/>
    <use xlink:href="#DejaVuSans-Bold-75" transform="translate(626.123047 0)"/>
    <use xlink:href="#DejaVuSans-Bold-66" transform="translate(697.314453 0)"/>
    <use xlink:href="#DejaVuSans-Bold-20" transform="translate(740.820312 0)"/>
    <use xlink:href="#DejaVuSans-Bold-64" transform="translate(775.634766 0)"/>
    <use xlink:href="#DejaVuSans-Bold-65" transform="translate(847.216797 0)"/>
    <use xlink:href="#DejaVuSans-Bold-72" transform="translate(915.039062 0)"/>
    <use xlink:href="#DejaVuSans-Bold-20" transform="translate(964.355469 0)"/>
    <use xlink:href="#DejaVuSans-Bold-56" transform="translate(999.169922 0)"/>
    <use xlink:href="#DejaVuSans-Bold-6f" transform="translate(1071.0625 0)"/>
    <use xlink:href="#DejaVuSans-Bold-72" transform="translate(1139.763672 0)"/>
    <use xlink:href="#DejaVuSans-Bold-73" transform="translate(1189.080078 0)"/>
    <use xlink:href="#DejaVuSans-Bold-63" transform="translate(1248.601562 0)"/>
    <use xlink:href="#DejaVuSans-Bold-68" transform="translate(1307.878906 0)"/>
    <use xlink:href="#DejaVuSans-Bold-75" transform="translate(1379.070312 0)"/>
    <use xlink:href="#DejaVuSans-Bold-62" transform="translate(1450.261719 0)"/>
    <use xlink:href="#DejaVuSans-Bold-61" transform="translate(1521.84375 0)"/>
    <use xlink:href="#DejaVuSans-Bold-63" transform="translate(1589.324219 0)"/>
    <use xlink:href="#DejaVuSans-Bold-68" transform="translate(1648.601562 0)"/>
    <use xlink:href="#DejaVuSans-Bold-73" transform="translate(1719.792969 0)"/>
    <use xlink:href="#DejaVuSans-Bold-65" transform="translate(1779.314453 0)"/>
    <use xlink:href="#DejaVuSans-Bold-20" transform="translate(1847.136719 0)"/>
    <use xlink:href="#DejaVuSans-Bold-69" transform="translate(1881.951172 0)"/>
    <use xlink:href="#DejaVuSans-Bold-6e" transform="translate(1916.228516 0)"/>
    <use xlink:href="#DejaVuSans-Bold-20" transform="translate(1987.419922 0)"/>
    <use xlink:href="#DejaVuSans-Bold-78" transform="translate(2022.234375 0)"/>
    <use xlink:href="#DejaVuSans-Bold-2d" transform="translate(2086.736328 0)"/>
    <use xlink:href="#DejaVuSans-Bold-52" transform="translate(2128.240234 0)"/>
    <use xlink:href="#DejaVuSans-Bold-69" transform="translate(2205.242188 0)"/>
    <use xlink:href="#DejaVuSans-Bold-63" transform="translate(2239.519531 0)"/>
    <use xlink:href="#DejaVuSans-Bold-68" transform="translate(2298.796875 0)"/>
    <use xlink:href="#DejaVuSans-Bold-74" transform="translate(2369.988281 0)"/>
    <use xlink:href="#DejaVuSans-Bold-75" transform="translate(2417.791016 0)"/>
    <use xlink:href="#DejaVuSans-Bold-6e" transform="translate(2488.982422 0)"/>
    <use xlink:href="#DejaVuSans-Bold-67" transform="translate(2560.173828 0)"/>
   </g>
  </g>
  <g id="legend_1">
   <g id="patch_7">
    <path d="M 159.98 562.88 
L 544.26 562.88 
Q 547.46 562.88 547.46 559.68 
L 547.46 537.795 
Q 547.46 534.595 544.26 534.595 
L 159.98 534.595 
Q 156.78 534.595 156.78 537.795 
L 156.78 559.68 
Q 156.78 562.88 159.98 562.88 
z
" style="fill: #ffffff; stroke: #002d4c; stroke-linejoin: miter"/>
   </g>
   <g id="line2d_25">
    <path d="M 163.18 547.5525 
L 179.18 547.5525 
L 195.18 547.5525 
" style="fill: none; stroke: #d30015; stroke-width: 2; stroke-linecap: square"/>
   </g>
   <g id="text_15">
    <!-- Referenzdaten -->
    <g transform="translate(207.98 553.1525) scale(0.16 -0.16)">
     <defs>
      <path id="DejaVuSans-52" d="M 2841 2188 
Q 3044 2119 3236 1894 
Q 3428 1669 3622 1275 
L 4263 0 
L 3584 0 
L 2988 1197 
Q 2756 1666 2539 1819 
Q 2322 1972 1947 1972 
L 1259 1972 
L 1259 0 
L 628 0 
L 628 4666 
L 2053 4666 
Q 2853 4666 3247 4331 
Q 3641 3997 3641 3322 
Q 3641 2881 3436 2590 
Q 3231 2300 2841 2188 
z
M 1259 4147 
L 1259 2491 
L 2053 2491 
Q 2509 2491 2742 2702 
Q 2975 2913 2975 3322 
Q 2975 3731 2742 3939 
Q 2509 4147 2053 4147 
L 1259 4147 
z
" transform="scale(0.015625)"/>
      <path id="DejaVuSans-65" d="M 3597 1894 
L 3597 1613 
L 953 1613 
Q 991 1019 1311 708 
Q 1631 397 2203 397 
Q 2534 397 2845 478 
Q 3156 559 3463 722 
L 3463 178 
Q 3153 47 2828 -22 
Q 2503 -91 2169 -91 
Q 1331 -91 842 396 
Q 353 884 353 1716 
Q 353 2575 817 3079 
Q 1281 3584 2069 3584 
Q 2775 3584 3186 3129 
Q 3597 2675 3597 1894 
z
M 3022 2063 
Q 3016 2534 2758 2815 
Q 2500 3097 2075 3097 
Q 1594 3097 1305 2825 
Q 1016 2553 972 2059 
L 3022 2063 
z
" transform="scale(0.015625)"/>
      <path id="DejaVuSans-66" d="M 2375 4863 
L 2375 4384 
L 1825 4384 
Q 1516 4384 1395 4259 
Q 1275 4134 1275 3809 
L 1275 3500 
L 2222 3500 
L 2222 3053 
L 1275 3053 
L 1275 0 
L 697 0 
L 697 3053 
L 147 3053 
L 147 3500 
L 697 3500 
L 697 3744 
Q 697 4328 969 4595 
Q 1241 4863 1831 4863 
L 2375 4863 
z
" transform="scale(0.015625)"/>
      <path id="DejaVuSans-72" d="M 2631 2963 
Q 2534 3019 2420 3045 
Q 2306 3072 2169 3072 
Q 1681 3072 1420 2755 
Q 1159 2438 1159 1844 
L 1159 0 
L 581 0 
L 581 3500 
L 1159 3500 
L 1159 2956 
Q 1341 3275 1631 3429 
Q 1922 3584 2338 3584 
Q 2397 3584 2469 3576 
Q 2541 3569 2628 3553 
L 2631 2963 
z
" transform="scale(0.015625)"/>
      <path id="DejaVuSans-7a" d="M 353 3500 
L 3084 3500 
L 3084 2975 
L 922 459 
L 3084 459 
L 3084 0 
L 275 0 
L 275 525 
L 2438 3041 
L 353 3041 
L 353 3500 
z
" transform="scale(0.015625)"/>
      <path id="DejaVuSans-64" d="M 2906 2969 
L 2906 4863 
L 3481 4863 
L 3481 0 
L 2906 0 
L 2906 525 
Q 2725 213 2448 61 
Q 2172 -91 1784 -91 
Q 1150 -91 751 415 
Q 353 922 353 1747 
Q 353 2572 751 3078 
Q 1150 3584 1784 3584 
Q 2172 3584 2448 3432 
Q 2725 3281 2906 2969 
z
M 947 1747 
Q 947 1113 1208 752 
Q 1469 391 1925 391 
Q 2381 391 2643 752 
Q 2906 1113 2906 1747 
Q 2906 2381 2643 2742 
Q 2381 3103 1925 3103 
Q 1469 3103 1208 2742 
Q 947 2381 947 1747 
z
" transform="scale(0.015625)"/>
      <path id="DejaVuSans-61" d="M 2194 1759 
Q 1497 1759 1228 1600 
Q 959 1441 959 1056 
Q 959 750 1161 570 
Q 1363 391 1709 391 
Q 2188 391 2477 730 
Q 2766 1069 2766 1631 
L 2766 1759 
L 2194 1759 
z
M 3341 1997 
L 3341 0 
L 2766 0 
L 2766 531 
Q 2569 213 2275 61 
Q 1981 -91 1556 -91 
Q 1019 -91 701 211 
Q 384 513 384 1019 
Q 384 1609 779 1909 
Q 1175 2209 1959 2209 
L 2766 2209 
L 2766 2266 
Q 2766 2663 2505 2880 
Q 2244 3097 1772 3097 
Q 1472 3097 1187 3025 
Q 903 2953 641 2809 
L 641 3341 
Q 956 3463 1253 3523 
Q 1550 3584 1831 3584 
Q 2591 3584 2966 3190 
Q 3341 2797 3341 1997 
z
" transform="scale(0.015625)"/>
      <path id="DejaVuSans-74" d="M 1172 4494 
L 1172 3500 
L 2356 3500 
L 2356 3053 
L 1172 3053 
L 1172 1153 
Q 1172 725 1289 603 
Q 1406 481 1766 481 
L 2356 481 
L 2356 0 
L 1766 0 
Q 1100 0 847 248 
Q 594 497 594 1153 
L 594 3053 
L 172 3053 
L 172 3500 
L 594 3500 
L 594 4494 
L 1172 4494 
z
" transform="scale(0.015625)"/>
     </defs>
     <use xlink:href="#DejaVuSans-52"/>
     <use xlink:href="#DejaVuSans-65" transform="translate(64.982422 0)"/>
     <use xlink:href="#DejaVuSans-66" transform="translate(126.505859 0)"/>
     <use xlink:href="#DejaVuSans-65" transform="translate(161.710938 0)"/>
     <use xlink:href="#DejaVuSans-72" transform="translate(223.234375 0)"/>
     <use xlink:href="#DejaVuSans-65" transform="translate(262.097656 0)"/>
     <use xlink:href="#DejaVuSans-6e" transform="translate(323.621094 0)"/>
     <use xlink:href="#DejaVuSans-7a" transform="translate(387 0)"/>
     <use xlink:href="#DejaVuSans-64" transform="translate(439.490234 0)"/>
     <use xlink:href="#DejaVuSans-61" transform="translate(502.966797 0)"/>
     <use xlink:href="#DejaVuSans-74" transform="translate(564.246094 0)"/>
     <use xlink:href="#DejaVuSans-65" transform="translate(603.455078 0)"/>
     <use xlink:href="#DejaVuSans-6e" transform="translate(664.978516 0)"/>
    </g>
   </g>
   <g id="line2d_26">
    <path d="M 356.52 547.5525 
L 372.52 547.5525 
L 388.52 547.5525 
" style="fill: none; stroke: #0c537e; stroke-width: 2; stroke-linecap: square"/>
   </g>
   <g id="text_16">
    <!-- Strom-Messwerte -->
    <g transform="translate(401.32 553.1525) scale(0.16 -0.16)">
     <defs>
      <path id="DejaVuSans-53" d="M 3425 4513 
L 3425 3897 
Q 3066 4069 2747 4153 
Q 2428 4238 2131 4238 
Q 1616 4238 1336 4038 
Q 1056 3838 1056 3469 
Q 1056 3159 1242 3001 
Q 1428 2844 1947 2747 
L 2328 2669 
Q 3034 2534 3370 2195 
Q 3706 1856 3706 1288 
Q 3706 609 3251 259 
Q 2797 -91 1919 -91 
Q 1588 -91 1214 -16 
Q 841 59 441 206 
L 441 856 
Q 825 641 1194 531 
Q 1563 422 1919 422 
Q 2459 422 2753 634 
Q 3047 847 3047 1241 
Q 3047 1584 2836 1778 
Q 2625 1972 2144 2069 
L 1759 2144 
Q 1053 2284 737 2584 
Q 422 2884 422 3419 
Q 422 4038 858 4394 
Q 1294 4750 2059 4750 
Q 2388 4750 2728 4690 
Q 3069 4631 3425 4513 
z
" transform="scale(0.015625)"/>
      <path id="DejaVuSans-6f" d="M 1959 3097 
Q 1497 3097 1228 2736 
Q 959 2375 959 1747 
Q 959 1119 1226 758 
Q 1494 397 1959 397 
Q 2419 397 2687 759 
Q 2956 1122 2956 1747 
Q 2956 2369 2687 2733 
Q 2419 3097 1959 3097 
z
M 1959 3584 
Q 2709 3584 3137 3096 
Q 3566 2609 3566 1747 
Q 3566 888 3137 398 
Q 2709 -91 1959 -91 
Q 1206 -91 779 398 
Q 353 888 353 1747 
Q 353 2609 779 3096 
Q 1206 3584 1959 3584 
z
" transform="scale(0.015625)"/>
      <path id="DejaVuSans-6d" d="M 3328 2828 
Q 3544 3216 3844 3400 
Q 4144 3584 4550 3584 
Q 5097 3584 5394 3201 
Q 5691 2819 5691 2113 
L 5691 0 
L 5113 0 
L 5113 2094 
Q 5113 2597 4934 2840 
Q 4756 3084 4391 3084 
Q 3944 3084 3684 2787 
Q 3425 2491 3425 1978 
L 3425 0 
L 2847 0 
L 2847 2094 
Q 2847 2600 2669 2842 
Q 2491 3084 2119 3084 
Q 1678 3084 1418 2786 
Q 1159 2488 1159 1978 
L 1159 0 
L 581 0 
L 581 3500 
L 1159 3500 
L 1159 2956 
Q 1356 3278 1631 3431 
Q 1906 3584 2284 3584 
Q 2666 3584 2933 3390 
Q 3200 3197 3328 2828 
z
" transform="scale(0.015625)"/>
      <path id="DejaVuSans-2d" d="M 313 2009 
L 1997 2009 
L 1997 1497 
L 313 1497 
L 313 2009 
z
" transform="scale(0.015625)"/>
      <path id="DejaVuSans-4d" d="M 628 4666 
L 1569 4666 
L 2759 1491 
L 3956 4666 
L 4897 4666 
L 4897 0 
L 4281 0 
L 4281 4097 
L 3078 897 
L 2444 897 
L 1241 4097 
L 1241 0 
L 628 0 
L 628 4666 
z
" transform="scale(0.015625)"/>
      <path id="DejaVuSans-77" d="M 269 3500 
L 844 3500 
L 1563 769 
L 2278 3500 
L 2956 3500 
L 3675 769 
L 4391 3500 
L 4966 3500 
L 4050 0 
L 3372 0 
L 2619 2869 
L 1863 0 
L 1184 0 
L 269 3500 
z
" transform="scale(0.015625)"/>
     </defs>
     <use xlink:href="#DejaVuSans-53"/>
     <use xlink:href="#DejaVuSans-74" transform="translate(63.476562 0)"/>
     <use xlink:href="#DejaVuSans-72" transform="translate(102.685547 0)"/>
     <use xlink:href="#DejaVuSans-6f" transform="translate(141.548828 0)"/>
     <use xlink:href="#DejaVuSans-6d" transform="translate(202.730469 0)"/>
     <use xlink:href="#DejaVuSans-2d" transform="translate(300.142578 0)"/>
     <use xlink:href="#DejaVuSans-4d" transform="translate(336.226562 0)"/>
     <use xlink:href="#DejaVuSans-65" transform="translate(422.505859 0)"/>
     <use xlink:href="#DejaVuSans-73" transform="translate(484.029297 0)"/>
     <use xlink:href="#DejaVuSans-73" transform="translate(536.128906 0)"/>
     <use xlink:href="#DejaVuSans-77" transform="translate(588.228516 0)"/>
     <use xlink:href="#DejaVuSans-65" transform="translate(670.015625 0)"/>
     <use xlink:href="#DejaVuSans-72" transform="translate(731.539062 0)"/>
     <use xlink:href="#DejaVuSans-74" transform="translate(772.652344 0)"/>
     <use xlink:href="#DejaVuSans-65" transform="translate(811.861328 0)"/>
    </g>
   </g>
  </g>
 </g>
 <defs>
  <clipPath id="pe717bdadf8">
   <rect x="27.44" y="64.8" width="669.6" height="443.52"/>
  </clipPath>
 </defs>
</svg>
